<svg width="141" height="37" viewBox="0 0 141 37" fill="none" xmlns="http://www.w3.org/2000/svg">
<path d="M48 13.813V0.323H52.313C55.866 0.323 57.88 3.021 57.88 6.973C57.88 11.001 55.695 13.813 52.275 13.813H48ZM50.337 11.951H52.123C54.308 11.951 55.486 9.842 55.486 6.973C55.486 4.161 54.384 2.185 52.161 2.185H50.337V11.951Z" fill="#222222"/>
<path d="M58.9462 13.813L63.0122 0.323H65.7102L69.7762 13.813H67.4772L66.4892 10.374H62.2142L61.2452 13.813H58.9462ZM62.7462 8.493H65.9572C65.1972 5.928 64.7032 3.914 64.3992 2.261H64.3232C64.0192 3.914 63.5062 5.928 62.7462 8.493Z" fill="#222222"/>
<path d="M76.1435 14.136C72.7615 14.136 71.1085 11.723 71.1085 7.752V6.384C71.1085 2.413 72.7615 0 76.1435 0C79.5255 0 81.1785 2.413 81.1785 6.384V7.752C81.1785 11.723 79.5255 14.136 76.1435 14.136ZM73.5025 7.809C73.5025 10.849 74.3195 12.217 76.1435 12.217C77.9675 12.217 78.7845 10.849 78.7845 7.809V6.327C78.7845 3.287 77.9675 1.919 76.1435 1.919C74.3195 1.919 73.5025 3.287 73.5025 6.327V7.809Z" fill="#222222"/>
<path d="M52.769 28.764C54.897 28.764 55.372 27.51 55.372 26.446C55.372 25.363 54.897 24.128 52.902 24.128H50.907V28.764H52.769ZM48.57 35.813V22.323H53.225C56.854 22.323 57.823 24.565 57.823 26.389C57.823 28.251 56.74 30.512 53.016 30.512H50.907V35.813H48.57Z" fill="#222222"/>
<path d="M60.4662 22.323H62.8032V33.837H68.9212V35.813H60.4662V22.323Z" fill="#222222"/>
<path d="M70.7285 35.813L74.7945 22.323H77.4925L81.5585 35.813H79.2595L78.2715 32.374H73.9965L73.0275 35.813H70.7285ZM74.5285 30.493H77.7395C76.9795 27.928 76.4855 25.914 76.1815 24.261H76.1055C75.8015 25.914 75.2885 27.928 74.5285 30.493Z" fill="#222222"/>
<path d="M89.1037 30.55V35.813H86.7667V30.55L82.5677 22.323H85.1137L87.9257 28.593L90.7187 22.323H93.2837L89.1037 30.55Z" fill="#222222"/>
<path d="M99.9929 22.323C103.508 22.323 104.42 24.318 104.42 25.914C104.42 27.168 103.698 28.346 102.064 28.783C103.736 29.068 104.762 30.227 104.762 32.051C104.762 33.799 103.698 35.813 100.316 35.813H95.3569V22.323H99.9929ZM97.6939 34.027H100.012C101.779 34.027 102.368 32.963 102.368 31.842C102.368 30.664 101.703 29.752 100.145 29.752H97.6939V34.027ZM97.6939 28.08H99.7459C101.703 28.08 102.007 26.997 102.007 26.123C102.007 25.135 101.589 24.109 99.7459 24.109H97.6939V28.08Z" fill="#222222"/>
<path d="M111.49 36.136C108.108 36.136 106.455 33.723 106.455 29.752V28.384C106.455 24.413 108.108 22 111.49 22C114.872 22 116.525 24.413 116.525 28.384V29.752C116.525 33.723 114.872 36.136 111.49 36.136ZM108.849 29.809C108.849 32.849 109.666 34.217 111.49 34.217C113.314 34.217 114.131 32.849 114.131 29.809V28.327C114.131 25.287 113.314 23.919 111.49 23.919C109.666 23.919 108.849 25.287 108.849 28.327V29.809Z" fill="#222222"/>
<path d="M123.272 36.136C119.89 36.136 118.237 33.723 118.237 29.752V28.384C118.237 24.413 119.89 22 123.272 22C126.654 22 128.307 24.413 128.307 28.384V29.752C128.307 33.723 126.654 36.136 123.272 36.136ZM120.631 29.809C120.631 32.849 121.448 34.217 123.272 34.217C125.096 34.217 125.913 32.849 125.913 29.809V28.327C125.913 25.287 125.096 23.919 123.272 23.919C121.448 23.919 120.631 25.287 120.631 28.327V29.809Z" fill="#222222"/>
<path d="M130.571 22.323H132.908V28.669L137.259 22.323H139.957L136.138 27.662L140.356 35.813H137.658L134.409 29.277L132.908 31.367V35.813H130.571V22.323Z" fill="#222222"/>
<path fill-rule="evenodd" clip-rule="evenodd" d="M32 18.0002C32 9.16376 24.8365 2.00024 16 2.00024C7.16344 2.00024 0 9.16376 0 18.0002C0 26.8368 7.16344 34.0002 16 34.0002C24.8365 34.0002 32 26.8368 32 18.0002ZM26.8853 16.4052C26.1126 11.086 21.5334 7.00024 16 7.00024C10.4666 7.00024 5.88741 11.086 5.11478 16.4052C5.04589 16.8796 5.01144 17.1169 5.10664 17.3622C5.18306 17.559 5.36291 17.7668 5.54675 17.8708C5.77578 18.0002 6.05053 18.0002 6.6 18.0002H25.4C25.9494 18.0002 26.2242 18.0002 26.4533 17.8708C26.6371 17.7668 26.817 17.559 26.8934 17.3622C26.9886 17.1169 26.9541 16.8796 26.8853 16.4052Z" fill="#222222"/>
</svg>
