<svg width="24" height="24" viewBox="0 0 24 24" fill="none" xmlns="http://www.w3.org/2000/svg">
<g clip-path="url(#clip0_75_91)">
<circle cx="12" cy="12" r="12" fill="#222222"/>
<path d="M13.9999 10C14.7955 10 15.5586 10.3161 16.1212 10.8787C16.6838 11.4413 16.9999 12.2044 16.9999 13V16.5H14.9999V13C14.9999 12.7348 14.8945 12.4804 14.707 12.2929C14.5194 12.1054 14.2651 12 13.9999 12C13.7347 12 13.4803 12.1054 13.2928 12.2929C13.1052 12.4804 12.9999 12.7348 12.9999 13V16.5H10.9999V13C10.9999 12.2044 11.3159 11.4413 11.8786 10.8787C12.4412 10.3161 13.2042 10 13.9999 10Z" fill="white"/>
<path d="M9.00012 10.5H7.00012V16.5H9.00012V10.5Z" fill="white"/>
<path d="M8.00012 9C8.55241 9 9.00012 8.55228 9.00012 8C9.00012 7.44772 8.55241 7 8.00012 7C7.44784 7 7.00012 7.44772 7.00012 8C7.00012 8.55228 7.44784 9 8.00012 9Z" fill="white"/>
</g>
<defs>
<clipPath id="clip0_75_91">
<rect width="24" height="24" fill="white"/>
</clipPath>
</defs>
</svg>
