<svg width="24" height="24" viewBox="0 0 24 24" fill="none" xmlns="http://www.w3.org/2000/svg">
<path d="M23.1928 6.46302C23.1361 6.32596 23.04 6.20881 22.9166 6.12637C22.7933 6.04394 22.6483 5.99992 22.5 5.99989H19.6472C19.2483 5.32131 18.6807 4.75747 17.9994 4.36321C17.3181 3.96894 16.5465 3.75765 15.7594 3.74989C15.173 3.7422 14.591 3.85187 14.0476 4.07244C13.5042 4.29301 13.0104 4.62003 12.5953 5.03427C12.1681 5.45354 11.829 5.954 11.5979 6.50622C11.3669 7.05845 11.2486 7.65129 11.25 8.24989V8.82083C7.47562 7.8252 4.38844 4.75489 4.35562 4.72208C4.255 4.62057 4.12747 4.54992 3.98805 4.51846C3.84862 4.487 3.70311 4.49603 3.56865 4.5445C3.43419 4.59296 3.31637 4.67884 3.22908 4.79202C3.14179 4.9052 3.08866 5.04096 3.07594 5.18333C2.67187 9.66364 3.97312 12.6618 5.13844 14.3877C5.70663 15.2409 6.39786 16.0054 7.18969 16.6565C5.76187 18.2999 3.51375 19.1633 3.48937 19.1727C3.38354 19.2123 3.28804 19.2754 3.21 19.3571C3.13195 19.4389 3.07339 19.5372 3.03868 19.6447C3.00397 19.7523 2.99402 19.8663 3.00956 19.9782C3.0251 20.0901 3.06574 20.1971 3.12844 20.2911C3.19875 20.3961 3.48 20.7646 4.16719 21.1086C5.01656 21.5343 6.13875 21.7499 7.5 21.7499C14.1253 21.7499 19.6612 16.648 20.2266 10.0836L23.0306 7.28052C23.1355 7.17557 23.2069 7.04188 23.2357 6.89637C23.2646 6.75085 23.2497 6.60004 23.1928 6.46302ZM18.9741 9.2202C18.8455 9.3491 18.7682 9.52038 18.7566 9.70208C18.375 15.6168 13.4325 20.2499 7.5 20.2499C6.51 20.2499 5.8125 20.1186 5.32312 19.9611C6.40219 19.3752 7.90687 18.3674 8.87437 16.9161C8.93116 16.8308 8.96985 16.7347 8.98805 16.6339C9.00626 16.533 9.0036 16.4295 8.98023 16.3297C8.95686 16.2299 8.91328 16.1359 8.85218 16.0536C8.79109 15.9713 8.71377 15.9024 8.625 15.8511C8.58094 15.8258 4.50844 13.3818 4.5 6.85114C6 8.06989 8.74219 9.96083 11.8753 10.4877C11.9827 10.5058 12.0927 10.5003 12.1978 10.4716C12.3028 10.4429 12.4003 10.3916 12.4836 10.3214C12.5668 10.2512 12.6338 10.1637 12.6798 10.065C12.7258 9.96632 12.7497 9.85879 12.75 9.74989V8.24989C12.7492 7.84981 12.8283 7.45361 12.9829 7.08459C13.1375 6.71557 13.3643 6.3812 13.65 6.10114C13.9239 5.82673 14.25 5.61002 14.6091 5.46381C14.9682 5.3176 15.3529 5.24486 15.7406 5.24989C16.9275 5.26489 18.0366 5.98864 18.5006 7.05083C18.5591 7.18437 18.6553 7.29797 18.7773 7.37772C18.8994 7.45748 19.042 7.49993 19.1878 7.49989H20.6878L18.9741 9.2202Z" fill="#222222"/>
</svg>
