<svg width="24" height="24" viewBox="0 0 24 24" fill="none" xmlns="http://www.w3.org/2000/svg">
<g clip-path="url(#clip0_75_87)">
<circle cx="12" cy="12" r="12" fill="#222222"/>
<path d="M17.4999 7.50015C17.0211 7.83788 16.4909 8.0962 15.9299 8.26515C15.6287 7.9189 15.2285 7.67349 14.7834 7.56211C14.3382 7.45073 13.8696 7.47874 13.4409 7.64237C13.0122 7.806 12.6441 8.09735 12.3864 8.477C12.1286 8.85666 11.9937 9.30631 11.9999 9.76515V10.2651C11.1212 10.2879 10.2505 10.0931 9.46538 9.69787C8.68025 9.30269 8.00504 8.71946 7.49988 8.00015C7.49988 8.00015 5.49988 12.5001 9.99988 14.5001C8.97014 15.1991 7.74346 15.5496 6.49988 15.5001C10.9999 18.0001 16.4999 15.5001 16.4999 9.75015C16.4994 9.61087 16.486 9.47194 16.4599 9.33515C16.9702 8.83189 17.3303 8.1965 17.4999 7.50015Z" fill="white"/>
</g>
<defs>
<clipPath id="clip0_75_87">
<rect width="24" height="24" fill="white"/>
</clipPath>
</defs>
</svg>
