<svg width="511" height="554" viewBox="0 0 511 554" fill="none" xmlns="http://www.w3.org/2000/svg">
<rect width="511" height="554" rx="24" fill="#F6F7F9"/>
<path fill-rule="evenodd" clip-rule="evenodd" d="M369.704 412.698C369.704 412.698 366.253 415.085 364.616 410.581C362.98 406.077 361.952 402.899 361.952 402.899C361.952 402.899 358.432 399.366 356.593 399.366C354.755 399.366 348.732 395.202 349.35 391.93C349.968 388.658 357.089 389.03 359.113 389.03C361.138 389.03 359.603 384.052 359.603 382.541C359.603 381.03 361.98 368.197 367.632 370.117C373.283 372.038 376.349 375.414 374.098 381.268C379.99 380.985 385.353 378.27 386.041 389.799C385.571 394.035 385.682 395.011 388.267 398.15C390.852 401.289 391.904 406.014 389.754 407.621C387.604 409.228 384.108 409.844 382.941 410.581C381.774 411.318 381.154 412.922 381.154 415.571C381.154 418.219 377.095 413.605 377.095 413.605L373.283 409.539L369.704 412.698Z" fill="white"/>
<path d="M321.632 265.725C325.554 307.624 328.821 349.583 331.432 391.582C331.741 396.545 331.929 401.93 329.09 406.017C327.185 408.759 324.169 410.505 321.16 411.96C310.149 417.283 298.013 419.851 285.914 421.67C252.928 426.627 219.153 426.328 186.261 420.788C179.752 419.691 173.148 418.345 167.41 415.091C161.671 411.838 156.849 406.345 155.99 399.817C148.829 345.455 144.821 290.68 143.992 235.858C143.932 231.886 143.793 227.617 141.407 224.436C138.823 220.991 134.206 219.66 131.287 216.492C126.252 211.026 128.146 201.693 133.429 196.466C138.712 191.238 146.292 189.163 153.575 187.636C174.85 183.176 196.748 181.683 218.434 183.213C219.074 184.958 216.443 185.937 214.58 185.939C194.207 185.963 173.836 187.627 153.73 190.909C146.362 192.112 138.33 193.949 133.867 199.919C154.169 206.594 175.935 206.974 197.311 207.138C235.521 207.429 274.004 207.201 311.519 199.964C314.859 199.32 318.48 198.445 320.552 195.753C322.623 193.061 321.647 188.076 318.268 187.683C289.358 184.32 260.15 183.51 231.097 185.267C228.854 185.403 225.55 184.057 226.648 182.101C253.297 180.838 280.035 181.424 306.603 183.853C313.737 184.506 321.251 185.44 326.959 189.758C333.017 194.341 336.036 202.585 334.365 209.984C332.694 217.383 326.422 223.539 318.979 225.088" fill="white"/>
<path fill-rule="evenodd" clip-rule="evenodd" d="M220.914 181.253C221.875 154.851 225.79 128.22 221.357 102.176C220.87 99.3147 220.276 96.4472 219.13 93.7818C217.192 89.2793 213.662 85.4826 209.314 83.2258C207.979 82.533 206.493 81.915 205.679 80.6497C204.865 79.3844 205.276 77.2415 206.76 77C212.842 77.9735 217.803 82.7284 220.547 88.2482C223.291 93.7679 224.154 100.011 224.785 106.144C226.999 127.666 226.818 149.434 224.244 170.916C223.368 178.226 222.246 185.843 224.684 192.789C223.949 192.613 223.213 192.437 222.478 192.261C220.742 188.938 220.777 185.001 220.914 181.253H220.914Z" fill="#E7EAEE"/>
<path d="M151.824 445.942C150.282 447.642 147.88 448.545 145.58 448.292C144.422 448.164 143.798 449.853 144.461 450.796C145.124 451.739 146.417 452.001 147.582 452.036C148.746 452.072 149.97 451.97 151.019 452.469C147.083 454.244 143.147 456.019 139.212 457.795C127.883 466.14 145.033 462.84 147.863 462.193C144.707 465.326 142.529 468.716 144.953 468.818C142.778 469.777 148.187 467.38 146.681 469.199C145.175 471.019 144.69 473.889 146.25 475.664C148.862 475.634 151.195 473.221 151.098 470.651C156.095 471.608 161.224 471.896 166.299 471.504C169.247 471.276 171.492 468.036 170.76 465.215C170.027 462.393 166.635 460.607 163.802 461.443C167.445 459.813 170.896 457.77 174.066 455.367C173.205 454.076 172.344 452.786 171.484 451.495C170.172 449.528 168.824 447.522 166.93 446.087C165.036 444.652 162.459 443.869 160.211 444.667C157.963 445.466 156.425 448.192 157.455 450.315C156.754 451.18 155.224 451.188 154.514 450.33C153.803 449.473 154.118 447.999 155.119 447.496C156.014 447.046 156.121 445.741 155.597 444.897C155.073 444.053 154.134 443.563 153.239 443.113C150.845 441.908 147.772 440.752 145.668 442.4C146.525 442.906 147.531 443.165 148.53 443.137C147.174 443.935 145.818 444.732 144.462 445.529C143.984 445.97 144.952 446.513 145.604 446.458C147.677 446.286 149.751 446.114 151.824 445.942Z" fill="white"/>
<path fill-rule="evenodd" clip-rule="evenodd" d="M145.604 446.458C147.678 446.286 149.751 446.114 151.824 445.942C150.282 447.642 147.881 448.545 145.58 448.292C144.422 448.164 143.798 449.853 144.462 450.796C145.125 451.739 146.417 452.001 147.582 452.036C148.746 452.072 149.97 451.97 151.019 452.469C147.083 454.244 143.148 456.019 139.212 457.795C142.096 458.139 145.041 457.982 147.871 457.335C144.716 460.468 138.176 458.731 135.903 462.533C140.437 463.068 145.1 462.513 149.373 460.928C149.349 462.444 147.551 463.264 146.026 463.467C144.501 463.671 142.739 463.727 141.783 464.915C141.162 465.686 139.937 465.449 138.989 465.139C137.415 464.625 135.787 464.079 134.588 462.952C133.388 461.825 132.753 459.939 133.572 458.52C135.369 455.406 141.733 457.248 142.807 453.825C143.076 452.969 142.86 452.047 142.648 451.175C142.154 449.147 141.679 447.059 141.961 444.991C142.242 442.924 143.439 440.85 145.411 440.087C148.723 438.805 152.114 441.57 155.587 442.338C158.202 442.916 160.974 442.335 163.587 442.922C167.348 443.768 170.107 446.834 172.598 449.735C173.727 451.049 174.896 452.443 175.234 454.133C175.572 455.822 174.742 457.871 173.045 458.284C171.501 458.66 170.889 460.587 171.191 462.124C171.492 463.661 172.4 465.02 172.82 466.53C173.24 468.04 172.972 469.969 171.556 470.681C168.57 472.182 165.441 473.72 162.088 473.722C159.842 473.723 157.647 473.028 155.402 472.959C153.158 472.889 150.626 473.675 149.68 475.681C148.729 477.698 145.366 477.243 144.122 475.387C142.879 473.531 143.112 471.109 143.393 468.902C143.476 468.254 143.578 467.562 144.021 467.076C144.384 466.678 144.919 466.485 145.438 466.325C147.754 465.613 150.196 465.298 152.621 465.4C150.445 466.359 148.188 467.38 146.682 469.199C145.176 471.019 144.691 473.889 146.25 475.664C148.862 475.634 151.195 473.221 151.098 470.651C156.095 471.608 161.224 471.896 166.299 471.504C169.247 471.276 171.492 468.036 170.76 465.215C170.028 462.393 166.635 460.607 163.803 461.443C167.445 459.813 170.896 457.77 174.066 455.367C173.205 454.076 172.345 452.786 171.484 451.495C170.172 449.528 168.825 447.522 166.93 446.087C165.036 444.652 162.46 443.869 160.211 444.667C157.963 445.466 156.425 448.192 157.455 450.315C156.754 451.18 155.224 451.188 154.514 450.33C153.804 449.473 154.119 447.998 155.12 447.496C156.015 447.046 156.122 445.741 155.597 444.897C155.073 444.053 154.134 443.563 153.239 443.113C150.845 441.908 147.772 440.752 145.668 442.4C146.526 442.906 147.531 443.165 148.53 443.137C147.174 443.935 145.818 444.732 144.463 445.529C143.984 445.97 144.952 446.513 145.604 446.458V446.458Z" fill="#FFB61D"/>
<path fill-rule="evenodd" clip-rule="evenodd" d="M214.238 176.315C214.03 175.512 214.333 174.548 215.072 174.166C215.312 174.666 215.553 175.167 215.793 175.667C215.291 175.976 214.789 176.286 214.286 176.595L214.238 176.315Z" fill="#E7EAEE"/>
<path d="M154.08 456.757C154.4 458.337 154.214 460.004 153.551 461.488C155.399 461.68 157.273 461.652 159.113 461.405C157.836 463.349 154.563 463.893 152.809 462.308C151.056 460.722 151.746 457.415 154.08 456.757L154.08 456.757Z" fill="white"/>
<path fill-rule="evenodd" clip-rule="evenodd" d="M216.425 138.558C215.714 147.584 215.419 156.638 215.539 165.687C215.563 167.459 215.624 169.308 216.543 170.866C216.813 171.324 216.119 171.854 215.572 171.714C215.024 171.574 214.695 171.073 214.449 170.602C211.12 164.229 213.223 156.725 213.074 149.658C212.977 145.058 211.91 140.319 213.469 135.947C213.784 135.063 215.326 135.13 215.937 135.871C216.548 136.612 216.498 137.631 216.425 138.558L216.425 138.558Z" fill="#E7EAEE"/>
<path d="M109.262 364.179C109.865 365.226 109.874 366.633 109.283 367.688C108.64 365.082 105.244 363.812 103.219 365.42C102.476 366.011 101.671 366.948 100.813 366.574C101.211 366.416 101.271 365.719 100.906 365.487C102.604 362.589 106.857 361.923 109.262 364.179H109.262Z" fill="black"/>
<path fill-rule="evenodd" clip-rule="evenodd" d="M115.911 361.559C115.991 361.2 116.071 360.843 116.14 360.49C116.546 358.426 116.305 355.803 114.403 354.914C113.086 354.298 111.658 354.809 110.231 355.32C109.697 355.511 109.163 355.702 108.635 355.834C105.668 356.575 102.297 355.182 100.713 352.56C99.5131 350.572 96.1908 351.611 95.0887 353.654C94.3929 354.944 94.208 356.407 94.0222 357.877C93.9137 358.735 93.8049 359.595 93.5939 360.425C93.0215 362.676 90.9789 364.993 88.7572 364.332C86.9877 363.807 84.9238 364.507 83.8372 366.003C82.7506 367.498 82.7183 369.682 83.7603 371.21C85.026 373.065 87.3127 373.633 89.5632 374.192C90.2058 374.352 90.8455 374.511 91.4576 374.699C92.5116 375.023 93.5904 375.511 94.1945 376.436C94.7987 377.36 94.6931 378.814 93.7303 379.352C92.1534 380.233 92.2829 382.832 93.7114 383.939C95.1399 385.046 97.2535 384.839 98.8137 383.928C100.374 383.018 101.506 381.538 102.597 380.096C104.275 377.877 107.811 377.382 110.031 379.056C110.019 377.12 111.119 375.215 112.8 374.261C114.481 373.306 116.675 373.34 118.327 374.345C119.773 373.76 119.677 371.577 118.781 370.298C118.417 369.778 117.968 369.318 117.521 368.859C116.869 368.189 116.219 367.523 115.839 366.677C115.124 365.087 115.523 363.3 115.911 361.559ZM110.468 372.807C110.747 373.77 110.593 374.851 110.056 375.697L110.212 375.854C109.284 376.341 108.098 376.291 107.215 375.726L108.152 373.313C108.856 372.931 109.669 372.754 110.468 372.807Z" fill="white"/>
<path fill-rule="evenodd" clip-rule="evenodd" d="M368.125 262.546C367.177 261.425 366.229 260.303 365.238 259.226C362.177 255.903 358.426 252.874 353.962 252.199C353.491 252.128 353.015 252.084 352.539 252.039C351.579 251.95 350.62 251.86 349.711 251.553C348.495 251.141 347.438 250.362 346.46 249.53C345.135 248.403 343.858 247.132 342.578 245.858C338.813 242.11 335.024 238.339 329.912 238.14C324.529 237.931 319.474 242.766 319.438 248.158C319.407 252.683 322.335 256.622 325.126 260.181L373.669 322.076L403.765 360.451C407.651 365.406 412.759 370.891 418.992 370.027C424.594 369.251 428.357 362.67 426.76 357.238C426.147 355.151 424.938 353.329 423.727 351.504C422.671 349.912 421.613 348.317 420.946 346.541C419.884 343.711 419.893 340.673 419.903 337.62C419.91 335.284 419.917 332.94 419.444 330.676C418.396 325.659 415.093 321.447 411.733 317.58C409.915 315.488 407.988 312.389 409.726 310.23C411.795 307.66 410.762 303.866 409.456 300.837C405.262 291.11 399.174 282.206 391.633 274.774C388.404 271.591 383.706 268.493 379.667 270.548C377.964 271.415 375.928 270.351 374.445 269.147C372.075 267.222 370.1 264.885 368.125 262.546ZM403.679 302.834C404.001 304.48 403.694 306.34 402.497 307.513C402.203 307.801 401.837 308.051 401.425 308.068C400.723 308.096 400.191 307.468 399.776 306.899L380.969 281.093C380.245 280.101 380.75 278.557 381.804 277.927C382.857 277.296 384.236 277.445 385.329 278.003C386.423 278.561 387.29 279.471 388.119 280.377C393.173 285.897 397.701 291.9 401.619 298.278C402.497 299.706 403.358 301.189 403.679 302.834Z" fill="white"/>
<path fill-rule="evenodd" clip-rule="evenodd" d="M328.312 398.514C328.978 396.302 328.819 393.938 328.654 391.635L319.058 257.709C321.002 259.811 321.366 262.878 321.633 265.725C325.554 307.624 328.821 349.583 331.433 391.582C331.741 396.545 331.93 401.93 329.09 406.017C327.186 408.759 324.17 410.505 321.161 411.96C310.15 417.283 298.014 419.851 285.914 421.67C252.928 426.627 219.154 426.328 186.261 420.788C179.753 419.691 173.149 418.345 167.41 415.091C161.671 411.838 156.85 406.345 155.99 399.817C148.83 345.455 144.822 290.68 143.993 235.858C143.933 231.886 143.793 227.617 141.408 224.436C140.016 222.58 138.034 221.338 136.045 220.091C134.342 219.024 132.634 217.953 131.287 216.492C126.252 211.026 128.146 201.693 133.429 196.466C138.712 191.238 146.293 189.163 153.575 187.636C174.851 183.176 196.749 181.683 218.435 183.213C219.075 184.958 216.444 185.937 214.581 185.939C194.208 185.963 173.836 187.627 153.731 190.909C146.363 192.112 138.33 193.949 133.867 199.919C154.169 206.594 175.936 206.974 197.312 207.138C235.521 207.429 274.004 207.201 311.52 199.964C314.86 199.32 318.481 198.445 320.552 195.753C322.623 193.061 321.647 188.076 318.269 187.683C289.359 184.32 260.15 183.51 231.098 185.267C228.854 185.403 225.55 184.057 226.648 182.101C253.298 180.838 280.035 181.424 306.603 183.853C313.737 184.506 321.251 185.44 326.96 189.758C333.018 194.341 336.037 202.585 334.366 209.984C332.694 217.383 326.423 223.539 318.98 225.088L318.668 243.295C316.638 241.208 316.911 238.054 317.172 235.042L317.172 235.041L317.172 235.04L317.172 235.039C317.225 234.426 317.277 233.819 317.31 233.227C317.502 229.731 315.427 225.173 311.991 225.888C257.615 237.191 200.958 237.458 146.478 226.669C146.536 278.704 151.46 330.598 156.379 382.402C156.965 388.58 157.58 394.872 160.01 400.585C162.441 406.297 167.022 411.444 173.052 412.971C201.714 420.228 231.463 423.198 260.999 421.749C281.181 420.76 301.78 417.543 319.365 407.613C323.166 405.466 327.055 402.688 328.312 398.514ZM131.941 202.146C130.149 208.483 133.843 215.361 139.186 219.226C144.53 223.092 151.2 224.568 157.691 225.763C209.919 235.382 263.927 232.644 316.049 222.466C320.021 221.69 324.186 220.774 327.202 218.083C330.546 215.1 331.881 210.345 331.612 205.878C331.342 201.412 329.659 197.156 327.775 193.094C325.079 199.681 316.978 201.871 309.946 203.065C263.299 210.981 215.699 212.271 168.444 209.848C163.071 209.572 157.689 209.247 152.379 208.383C145.327 207.234 138.431 205.13 131.941 202.146ZM160.966 378.92C159.939 378.024 158.757 376.992 157.464 377.333C156.965 380.676 160.899 382.75 164.121 383.681C168.384 384.913 172.852 386.043 177.212 385.223C178.785 384.927 180.351 384.356 181.542 383.279C184.217 380.862 184.304 376.74 184.182 373.12C183.086 340.654 181.292 308.212 178.802 275.825C178.404 270.647 177.676 264.854 173.629 261.643C171.964 260.321 169.914 259.61 167.908 258.922L153.93 254.129C152.042 253.482 149.577 252.993 148.37 254.593C147.619 255.588 147.738 256.972 147.891 258.212C152.376 294.713 154.877 331.462 155.379 368.238C155.448 373.311 159.876 377.389 164.63 379.048C169.795 380.85 175.416 380.555 180.872 380.237C174.987 384.23 166.476 383.715 161.106 379.043L160.966 378.92ZM180.558 375.905C176.868 378.461 171.961 378.127 167.555 377.325C164.945 376.85 162.16 376.13 160.469 374.069C158.725 371.944 158.593 368.954 158.532 366.197C157.712 329.309 155.056 292.464 150.576 255.845L164.963 260.81C168.379 261.989 172.022 263.335 174.1 266.313C175.899 268.892 176.174 272.214 176.391 275.36L179.172 315.821C180.546 335.823 181.922 355.902 180.558 375.905ZM241.795 387.451C237.409 386.275 232.902 385.549 228.368 385.288L228.136 385.274C224.824 385.085 221.087 384.871 219.042 382.295C218.075 381.075 217.674 379.514 217.315 378.001C210.184 348.005 209.506 316.911 208.861 286.091L208.551 271.248C208.529 270.22 208.49 269.131 207.925 268.27C207.361 267.409 206.069 266.938 205.267 267.585L206.564 318.48C206.654 322.041 206.745 325.603 206.953 329.158C207.912 345.513 211.348 361.61 214.773 377.633C215.644 381.708 217.413 386.647 221.568 387.127L242.403 389.53C242.575 389.55 242.753 389.569 242.919 389.518C243.941 389.204 242.828 387.728 241.795 387.451ZM317.267 362.991C317.473 368.789 317.524 375.104 314.006 379.72C319.21 376.334 319.586 368.996 319.402 362.793L317.797 308.458C317.377 294.247 316.93 279.859 313.003 266.194C312.288 263.705 311.393 261.142 309.514 259.358C307.635 257.575 304.493 256.864 302.434 258.437C298.323 261.575 292.862 261.683 287.596 261.786C286.779 261.802 285.968 261.818 285.167 261.845C279.196 262.047 272.252 263.783 269.984 269.307C268.588 272.704 269.426 276.543 270.213 280.143L270.266 280.388C274.568 300.112 275.152 320.331 275.736 340.562C276.002 349.792 276.269 359.024 276.889 368.214C277.257 373.673 277.835 379.378 280.844 383.95C281.44 384.855 282.152 385.726 283.111 386.23C284.02 386.709 285.072 386.819 286.096 386.902C291.625 387.352 297.326 387.24 302.527 385.312C307.728 383.385 312.391 379.393 314.005 374.089C314.99 370.852 314.797 367.393 314.609 364.013L314.603 363.905C313.584 345.574 313.336 327.2 313.86 308.847C313.879 308.158 313.9 307.466 313.92 306.774C314.33 292.986 314.753 278.729 309.015 266.243C308.248 264.573 307.314 262.882 305.776 261.876C305.695 261.824 305.613 261.771 305.529 261.718C304.929 261.34 304.278 260.929 304.228 260.246C305.441 259.371 307.234 259.791 308.333 260.806C309.433 261.82 309.994 263.276 310.477 264.692C312.366 270.224 313.613 275.975 314.184 281.793C314.493 284.935 314.605 288.093 314.717 291.248L317.267 362.991ZM273.127 267.079C275.284 264.585 278.95 264.208 282.242 264.008L299.656 262.945C301.403 262.839 303.305 262.774 304.728 263.793C305.702 264.49 306.293 265.593 306.796 266.681C310.829 275.405 311.264 285.307 311.462 294.915C312.017 321.706 311.261 348.524 309.198 375.242C308.976 378.122 306.705 380.519 304.082 381.732C301.459 382.945 298.509 383.194 295.628 383.425L287.583 384.07C286.589 384.149 285.538 384.219 284.644 383.777C283.335 383.129 282.758 381.602 282.337 380.203C277.989 365.755 277.971 350.608 277.953 335.424C277.944 327.478 277.935 319.522 277.305 311.651C276.399 300.342 274.204 289.18 272.014 278.047L272.014 278.047L271.977 277.863C271.254 274.183 270.673 269.916 273.127 267.079ZM352.075 395.735C353.582 397.231 355.516 398.305 357.595 398.798C359.374 399.221 360.517 401.335 359.882 403.027C359.932 403.27 359.546 403.401 359.343 403.254C359.168 403.127 359.099 402.912 359.032 402.704L359.016 402.655C359.01 402.638 359.005 402.621 358.999 402.604C358.496 401.114 356.854 400.368 355.392 399.745C353.32 398.864 351.205 397.841 349.826 396.08C348.448 394.319 348.051 391.618 349.509 389.921C350.465 388.81 351.969 388.351 353.388 387.946C355.279 387.405 357.264 386.86 359.191 387.258L359.63 388.122C360.542 388.679 361.824 388.561 362.616 387.848C363.497 387.054 364.84 387.114 366.029 387.222L372.446 387.806C372.759 387.835 373.089 387.869 373.344 388.05C374.103 388.587 373.496 389.887 372.599 390.144C371.952 390.328 371.281 390.202 370.61 390.075L370.609 390.075C370.348 390.026 370.087 389.977 369.827 389.946C369.505 389.908 369.167 389.9 368.868 390.022C367.97 390.39 367.913 391.633 368.193 392.551C368.241 392.709 368.295 392.869 368.349 393.031C368.609 393.804 368.877 394.601 368.578 395.337C367.745 395.708 366.774 394.951 366.524 394.084C366.333 393.424 366.413 392.734 366.492 392.046C366.517 391.829 366.542 391.612 366.558 391.396C366.627 390.497 366.482 389.469 365.744 388.935C362.764 390.339 359.399 390.937 356.109 390.648C355.848 390.625 355.587 390.597 355.326 390.569C354.493 390.478 353.66 390.388 352.829 390.474C351.738 390.587 350.617 391.067 350.062 392C350.489 392.27 350.806 392.705 350.93 393.19L361.427 395.216C360.648 396.062 359.326 396.072 358.168 396.018L352.075 395.735ZM257.533 368.026C255.41 342.608 254.735 317.07 255.514 291.575L255.532 290.999V290.999C255.705 285.412 255.88 279.742 254.417 274.352C252.904 268.777 249.315 263.438 243.911 261.332C240.773 260.108 237.315 260.061 233.944 260.03C225.168 259.948 216.315 259.873 207.718 261.623C204.869 262.203 201.754 263.214 200.385 265.766C199.437 267.534 199.553 269.655 199.694 271.653L207.347 380.375C207.494 382.463 207.683 384.67 208.91 386.37C210.184 388.135 212.34 389.017 214.413 389.701C223.209 392.601 232.671 393.479 241.855 392.249C241.019 391.065 239.401 390.792 237.957 390.617L220.017 388.449C218.21 388.231 216.348 387.995 214.769 387.093C210.947 384.911 210.174 379.853 209.817 375.483C206.953 340.452 204.089 305.41 202.581 270.295C202.499 268.393 202.592 266.138 204.189 265.089C204.997 264.558 206.014 264.481 206.98 264.42L233.358 262.755C236.337 262.567 239.416 262.392 242.22 263.409C246.103 264.816 248.884 268.343 250.469 272.141C252.888 277.937 252.937 284.405 252.857 290.68C252.799 295.196 252.692 299.717 252.586 304.239L252.586 304.242C252.178 321.533 251.771 338.841 254.07 355.957C254.181 356.787 254.297 357.623 254.415 358.465C255.782 368.291 257.242 378.781 251.931 387.008L251.892 387.069L251.842 387.146C251.445 387.757 251.03 388.395 251.011 389.117C250.99 389.894 251.688 390.736 252.441 390.529C252.736 390.448 252.97 390.229 253.184 390.011C258.593 384.479 258.175 375.717 257.533 368.026ZM216.648 196.862C220.086 196.995 223.737 197.824 226.104 200.401C226.564 200.902 226.975 201.467 227.385 202.03L227.385 202.03L227.385 202.03C228.239 203.203 229.088 204.37 230.368 204.94C228.408 204.236 226.267 204.076 224.228 204.479C223.521 204.619 222.824 204.826 222.129 205.032C221.031 205.358 219.935 205.683 218.799 205.745L221.068 203.753C221.88 203.041 222.798 202.288 223.863 202.324C224.038 200.515 222.639 198.794 220.939 198.321C219.239 197.847 217.381 198.447 215.982 199.552C214.584 200.656 213.585 202.212 212.757 203.816C212.427 204.454 211.977 205.199 211.277 205.191C210.697 204.897 210.719 204.016 211.001 203.416C211.083 203.243 211.179 203.074 211.275 202.905C211.512 202.489 211.749 202.073 211.764 201.599C211.803 200.39 210.47 199.701 209.358 199.318C208.249 198.936 206.905 198.595 206.012 199.373C205.362 199.938 205.212 200.893 205.104 201.763L204.738 204.719C202.832 205.388 200.729 205.449 198.789 204.89C201.085 203.46 203.608 201.696 204.034 198.964C208.05 197.414 212.364 196.695 216.648 196.862ZM116.14 360.49C116.546 358.426 116.305 355.803 114.403 354.914C113.086 354.298 111.658 354.809 110.231 355.32C109.697 355.511 109.163 355.702 108.635 355.834C105.668 356.575 102.297 355.182 100.713 352.559C99.5131 350.572 96.1908 351.611 95.0887 353.654C94.3929 354.944 94.208 356.407 94.0222 357.877C93.9137 358.735 93.8049 359.595 93.5939 360.425C93.0215 362.676 90.9789 364.993 88.7572 364.332C86.9877 363.807 84.9238 364.507 83.8372 366.003C82.7506 367.498 82.7183 369.682 83.7603 371.21C85.026 373.065 87.3127 373.633 89.5632 374.192C90.2058 374.352 90.8455 374.511 91.4576 374.699C92.5116 375.023 93.5904 375.511 94.1945 376.436C94.7987 377.36 94.6931 378.814 93.7303 379.352C92.1534 380.233 92.2829 382.832 93.7114 383.939C95.1399 385.046 97.2535 384.839 98.8137 383.928C100.374 383.018 101.506 381.538 102.597 380.096C104.275 377.877 107.811 377.382 110.031 379.056C110.019 377.12 111.119 375.215 112.8 374.261C114.481 373.306 116.675 373.34 118.327 374.345C119.773 373.76 119.677 371.577 118.781 370.298C118.417 369.778 117.968 369.318 117.521 368.859C116.869 368.189 116.219 367.523 115.839 366.677C115.124 365.087 115.523 363.3 115.911 361.559C115.991 361.2 116.071 360.843 116.14 360.49ZM111.108 356.927C112.265 356.661 113.647 356.795 114.39 357.724C115.356 358.931 114.72 360.399 114.055 361.933C113.513 363.185 112.952 364.48 113.227 365.712C113.445 366.688 114.166 367.46 114.859 368.179L118.138 371.585C116.75 372.876 114.83 372.348 112.86 371.806C111.089 371.319 109.277 370.82 107.774 371.623C106.674 372.212 106.041 373.363 105.432 374.471C105.36 374.602 105.289 374.733 105.216 374.862C103.32 378.253 100.542 381.144 97.2318 383.171C96.8101 383.429 96.3435 383.682 95.8516 383.634C94.6505 383.517 94.3478 381.86 94.6498 380.689C95.0056 379.309 95.7305 378.03 96.4491 376.761C97.4868 374.929 98.5115 373.12 98.3933 371.066C97.131 373.159 94.3857 373.958 91.9696 373.615C89.5535 373.273 87.3782 372.013 85.2723 370.777C83.8181 369.924 84.3387 367.471 85.7887 366.61C87.2387 365.75 89.0579 365.983 90.7255 366.224C92.3931 366.465 94.2293 366.654 95.6398 365.73C94.9447 362.633 95.102 359.348 96.0896 356.331C96.446 355.243 96.9656 354.121 97.9449 353.531C98.9242 352.94 100.457 353.181 100.863 354.251C101.873 356.906 104.941 358.592 107.717 358.015C108.319 357.89 108.897 357.674 109.475 357.457C110.012 357.256 110.55 357.055 111.108 356.927ZM110.468 372.807C110.747 373.77 110.593 374.851 110.056 375.697L110.212 375.854C109.284 376.341 108.098 376.291 107.215 375.726L108.152 373.313C108.856 372.931 109.669 372.754 110.468 372.807ZM365.902 414.568C362.907 409.747 360.955 404.303 360.211 398.701C362.267 399.225 363.329 401.48 363.668 403.544C363.763 404.121 363.825 404.709 363.888 405.297C364.049 406.81 364.209 408.323 364.925 409.654C365.918 411.501 368.601 412.703 370.191 411.318C370.586 410.974 370.885 410.502 371.178 410.038C371.657 409.282 372.122 408.546 372.974 408.418C374.029 408.259 374.89 409.198 375.528 410.041L379.446 415.213C380.472 414.907 380.539 413.818 380.61 412.664C380.654 411.954 380.7 411.219 380.971 410.627C381.598 409.26 383.143 409.04 384.754 408.81C385.884 408.649 387.046 408.483 387.945 407.913C389.561 406.889 389.993 404.636 389.393 402.84C388.793 401.043 387.389 399.627 385.935 398.39C383.828 396.599 384.198 393.689 384.573 390.745C384.932 387.923 385.295 385.069 383.482 383.14C380.952 380.448 376.449 381.881 373.1 383.491L371.675 381.86C374.407 380.863 374.902 376.874 373.122 374.604C371.341 372.334 368.191 371.556 365.277 371.543C364.855 371.541 364.397 371.564 364.072 371.83C363.061 372.654 364.488 374.102 365.707 374.581L371.663 376.919C370.287 377.851 368.469 377.299 366.706 376.763C364.792 376.181 362.941 375.618 361.785 376.993C360.486 378.537 361.856 380.941 363.618 381.947C364.299 382.336 365.039 382.629 365.776 382.921C366.948 383.384 368.113 383.844 369.026 384.684C367.84 385.278 366.493 384.844 365.18 384.422C364.848 384.315 364.517 384.208 364.192 384.119C362.584 383.68 360.256 384.227 360.276 385.869C358.625 384.045 359.06 381.244 359.598 378.859C360.202 376.186 360.854 373.416 362.572 371.263C364.29 369.11 367.403 367.772 369.93 368.917C372.084 369.893 373.093 372.197 374.054 374.393C374.202 374.732 374.349 375.068 374.499 375.396C375.622 377.853 377.859 380.455 380.538 379.9C382.969 379.396 385.401 381.205 386.418 383.437C387.434 385.668 387.376 388.21 387.299 390.654C387.223 393.103 388.335 395.348 389.443 397.586C389.816 398.339 390.188 399.09 390.515 399.849C391.813 402.863 392.156 406.914 389.512 408.9C388.616 409.573 387.525 409.884 386.432 410.195C385.928 410.338 385.424 410.482 384.938 410.661C383.397 411.229 381.84 412.496 381.969 414.11C381.986 414.322 382.033 414.533 382.079 414.743C382.157 415.099 382.235 415.454 382.169 415.808C381.984 416.808 380.694 417.283 379.701 417C378.709 416.716 377.965 415.925 377.276 415.167L372.898 410.36C371.676 412.944 368.796 414.675 365.902 414.568ZM365.237 259.226C362.177 255.903 358.426 252.874 353.961 252.199C353.491 252.128 353.014 252.084 352.538 252.039C351.579 251.95 350.62 251.86 349.711 251.553C348.494 251.141 347.438 250.362 346.46 249.53C345.134 248.403 343.857 247.132 342.578 245.858C338.813 242.11 335.023 238.339 329.912 238.14C324.528 237.931 319.474 242.766 319.437 248.158C319.407 252.683 322.335 256.622 325.126 260.181L373.668 322.076L403.765 360.451C407.651 365.406 412.758 370.891 418.992 370.027C424.594 369.251 428.357 362.67 426.76 357.238C426.146 355.151 424.938 353.329 423.727 351.504C422.671 349.912 421.613 348.317 420.946 346.541C419.884 343.711 419.893 340.673 419.903 337.62C419.91 335.284 419.917 332.94 419.444 330.676C418.396 325.659 415.093 321.447 411.733 317.58C409.915 315.488 407.987 312.389 409.726 310.23C411.794 307.66 410.762 303.866 409.456 300.837C405.262 291.11 399.173 282.206 391.633 274.774C388.404 271.591 383.706 268.493 379.667 270.548C377.964 271.415 375.928 270.351 374.445 269.147C372.075 267.222 370.1 264.885 368.124 262.546C367.177 261.425 366.229 260.303 365.237 259.226ZM324.268 242.94C326.265 240.986 329.282 240.141 332.002 240.775C335.11 241.5 337.517 243.909 339.618 246.314C345.163 252.658 349.84 259.697 354.507 266.72C355.029 267.505 355.549 268.289 356.072 269.071C375.701 298.508 397.17 326.715 420.311 353.472C422.576 356.09 425.017 359.319 424.132 362.666C423.13 366.456 418.139 367.927 414.459 366.585C410.779 365.243 408.163 362.022 405.739 358.943L325.686 257.285C324.095 255.266 322.458 253.148 321.932 250.631C321.36 247.895 322.272 244.894 324.268 242.94ZM389.161 302.287C387.549 300.203 385.823 298.153 383.633 296.691C382.576 295.985 381.384 295.376 380.192 294.768C377.143 293.211 374.101 291.658 373.356 288.489C373.119 287.483 373.173 286.447 373.226 285.409C373.268 284.598 373.31 283.786 373.214 282.986C373.057 281.67 372.533 280.428 371.964 279.233C367.642 270.161 360.216 262.607 351.225 258.135C349.735 257.394 350.659 254.808 352.292 254.487C353.925 254.166 355.482 255.225 356.782 256.265C369.637 266.548 379.033 280.136 388.457 293.765C394.208 302.082 399.97 310.415 406.535 318.021C407.166 318.752 407.807 319.48 408.448 320.208C412.02 324.264 415.619 328.352 417.763 333.285C414.947 333.789 412.507 336.003 411.73 338.759C407.038 334.336 404.202 328.44 401.383 322.577C400.66 321.073 399.938 319.571 399.186 318.097C396.345 312.53 392.984 307.23 389.161 302.287ZM402.497 307.513C402.203 307.801 401.836 308.051 401.425 308.068C400.722 308.096 400.19 307.468 399.776 306.899L380.969 281.093C380.245 280.101 380.75 278.557 381.803 277.926C382.857 277.296 384.236 277.445 385.329 278.003C386.423 278.561 387.289 279.471 388.119 280.377C393.173 285.897 397.7 291.9 401.619 298.278C402.496 299.706 403.357 301.189 403.679 302.834C404.001 304.48 403.693 306.34 402.497 307.513ZM405.25 304.984C405.588 303.659 405.016 302.286 404.424 301.053C400.168 292.182 394.193 284.14 386.929 277.507C385.754 276.434 384.223 275.324 382.712 275.821C382.154 276.004 381.7 276.383 381.244 276.764C380.979 276.986 380.712 277.208 380.424 277.393C379.641 277.895 378.397 277.998 377.952 277.181C377.608 276.549 377.968 275.756 378.447 275.22C380.101 273.371 383.011 273.117 385.337 273.975C387.663 274.834 389.531 276.589 391.286 278.342C397.608 284.656 403.505 291.767 406.267 300.268C407.5 304.063 407.891 308.72 405.119 311.589C404.889 311.827 404.632 312.053 404.319 312.163C403.329 312.509 402.295 311.453 402.271 310.403C402.247 309.354 402.894 308.416 403.567 307.611C403.639 307.525 403.711 307.439 403.784 307.353C404.394 306.631 405.019 305.893 405.25 304.984ZM364.435 269.867C366.995 273.593 369.22 277.549 371.075 281.673C371.329 282.239 371.564 282.946 371.185 283.438C370.91 283.795 370.339 283.875 369.976 283.606C364.641 277.12 359.832 270.199 355.615 262.934C355.993 263.07 356.548 262.869 356.512 262.468C359.906 263.852 362.358 266.844 364.435 269.867ZM383.134 301.318C382.664 300.637 382.266 299.548 382.975 299.123C386.103 300.539 388.243 303.46 390.193 306.287C393.035 310.41 395.782 314.599 398.431 318.849C399.066 319.867 399.613 321.393 398.639 322.092C396.978 321.34 395.861 319.769 394.825 318.266L383.134 301.318ZM414.217 339.966C413.967 339.858 413.792 339.624 413.675 339.378C412.965 337.893 414.514 335.908 416.125 336.237C416.195 337.683 415.792 339.148 414.994 340.354C414.912 340.163 414.701 340.108 414.488 340.052C414.395 340.027 414.301 340.002 414.217 339.966ZM417.863 343.448C417.371 343.983 416.414 343.982 415.924 343.446C415.404 342.085 416.031 340.386 417.31 339.691L417.863 343.448Z" fill="#00160A"/>
</svg>
