<svg width="590" height="442" viewBox="0 0 590 442" fill="none" xmlns="http://www.w3.org/2000/svg">
<rect x="186" y="409.087" width="107" height="32" fill="#ADBCE1"/>
<path d="M194.966 431.087V421.147H198.144C200.762 421.147 202.246 423.135 202.246 426.047C202.246 429.015 200.636 431.087 198.116 431.087H194.966ZM196.688 429.715H198.004C199.614 429.715 200.482 428.161 200.482 426.047C200.482 423.975 199.67 422.519 198.032 422.519H196.688V429.715Z" fill="white"/>
<path d="M203.452 431.087L206.448 421.147H208.436L211.432 431.087H209.738L209.01 428.553H205.86L205.146 431.087H203.452ZM206.252 427.167H208.618C208.058 425.277 207.694 423.793 207.47 422.575H207.414C207.19 423.793 206.812 425.277 206.252 427.167Z" fill="white"/>
<path d="M216.543 431.325C214.051 431.325 212.833 429.547 212.833 426.621V425.613C212.833 422.687 214.051 420.909 216.543 420.909C219.035 420.909 220.253 422.687 220.253 425.613V426.621C220.253 429.547 219.035 431.325 216.543 431.325ZM214.597 426.663C214.597 428.903 215.199 429.911 216.543 429.911C217.887 429.911 218.489 428.903 218.489 426.663V425.571C218.489 423.331 217.887 422.323 216.543 422.323C215.199 422.323 214.597 423.331 214.597 425.571V426.663Z" fill="white"/>
<path d="M234.803 431.325C232.689 431.325 231.429 430.149 230.995 428.441L232.535 427.909C232.829 429.029 233.501 429.897 234.859 429.897C235.657 429.897 236.609 429.603 236.609 428.553C236.609 427.461 235.951 427.181 235.167 426.971L233.837 426.607C232.367 426.215 231.345 425.347 231.345 423.835C231.345 422.183 232.703 420.909 234.705 420.909C236.511 420.909 237.925 421.651 238.289 423.373L236.833 424.129C236.539 422.757 235.629 422.309 234.691 422.309C233.473 422.309 233.081 422.995 233.081 423.639C233.081 424.381 233.641 424.857 234.453 425.095L235.769 425.459C237.155 425.837 238.359 426.481 238.359 428.329C238.359 429.869 237.183 431.325 234.803 431.325Z" fill="white"/>
<path d="M246.872 421.147V422.561H242.602V425.305H246.634V426.691H242.602V429.673H246.97V431.087H240.88V421.147H246.872Z" fill="white"/>
<path d="M249.156 421.147H256.716V422.603H253.804V431.087H252.068V422.603H249.156V421.147Z" fill="white"/>
<path d="M259.895 426.453H264.193V427.937H259.895V426.453Z" fill="white"/>
<path d="M267.667 421.147H269.403V427.839C269.403 429.071 270.005 429.883 271.181 429.883C272.371 429.883 272.889 429.071 272.889 427.839V421.147H274.625V427.853C274.625 429.925 273.491 431.325 271.195 431.325C268.899 431.325 267.667 429.925 267.667 427.853V421.147Z" fill="white"/>
<path d="M280.395 425.893C281.963 425.893 282.313 424.969 282.313 424.185C282.313 423.387 281.963 422.477 280.493 422.477H279.023V425.893H280.395ZM277.301 431.087V421.147H280.731C283.405 421.147 284.119 422.799 284.119 424.143C284.119 425.515 283.321 427.181 280.577 427.181H279.023V431.087H277.301Z" fill="white"/>
<g filter="url(#filter0_d_35_300)">
<path d="M309.131 387.352L289.849 398.457L299.107 401.277L304.72 409.162L309.131 387.352Z" fill="#ADBCE1"/>
<path d="M309.131 387.352L289.849 398.457L299.107 401.277L304.72 409.162L309.131 387.352Z" stroke="white"/>
</g>
<path d="M475.93 96.3445L312.465 190.689L149 96.3445" stroke="#222222" stroke-width="3" stroke-miterlimit="10"/>
<path d="M312.465 379.38V190.69" stroke="#222222" stroke-width="3" stroke-miterlimit="10"/>
<path d="M258 347.69V159" stroke="#222222" stroke-width="3" stroke-miterlimit="10"/>
<path d="M199 314.69V126" stroke="#222222" stroke-width="3" stroke-miterlimit="10"/>
<path d="M475.93 96.3449L312.465 2L149 96.3449V285.035L312.465 379.38L475.93 285.035V96.3449Z" stroke="#222222" stroke-width="3" stroke-miterlimit="10"/>
<rect x="339" y="222" width="144" height="32" fill="#FFB58A"/>
<path d="M351.326 244.238C348.876 244.238 347.672 242.446 347.672 239.548V238.512C347.672 235.614 348.918 233.822 351.41 233.822C353.538 233.822 354.84 234.97 355.022 237.42L353.3 237.686C353.216 236.118 352.558 235.25 351.396 235.25C350.052 235.25 349.436 236.3 349.436 238.484V239.478C349.436 241.648 350.08 242.81 351.396 242.81C352.572 242.81 353.216 241.956 353.3 240.36L355.008 240.682C354.868 242.782 353.622 244.238 351.326 244.238Z" fill="white"/>
<path d="M360.442 244.238C357.95 244.238 356.732 242.46 356.732 239.534V238.526C356.732 235.6 357.95 233.822 360.442 233.822C362.934 233.822 364.152 235.6 364.152 238.526V239.534C364.152 242.46 362.934 244.238 360.442 244.238ZM358.496 239.576C358.496 241.816 359.098 242.824 360.442 242.824C361.786 242.824 362.388 241.816 362.388 239.576V238.484C362.388 236.244 361.786 235.236 360.442 235.236C359.098 235.236 358.496 236.244 358.496 238.484V239.576Z" fill="white"/>
<path d="M366.673 234.06H368.395V242.544H372.903V244H366.673V234.06Z" fill="white"/>
<path d="M375.775 234.06H377.497V242.544H382.005V244H375.775V234.06Z" fill="white"/>
<path d="M390.771 234.06V235.474H386.501V238.218H390.533V239.604H386.501V242.586H390.869V244H384.779V234.06H390.771Z" fill="white"/>
<path d="M396.834 244.238C394.384 244.238 393.18 242.446 393.18 239.548V238.512C393.18 235.614 394.426 233.822 396.918 233.822C399.046 233.822 400.348 234.97 400.53 237.42L398.808 237.686C398.724 236.118 398.066 235.25 396.904 235.25C395.56 235.25 394.944 236.3 394.944 238.484V239.478C394.944 241.648 395.588 242.81 396.904 242.81C398.08 242.81 398.724 241.956 398.808 240.36L400.516 240.682C400.376 242.782 399.13 244.238 396.834 244.238Z" fill="white"/>
<path d="M402.156 234.06H409.716V235.516H406.804V244H405.068V235.516H402.156V234.06Z" fill="white"/>
<path d="M415.051 244.238C412.56 244.238 411.341 242.46 411.341 239.534V238.526C411.341 235.6 412.56 233.822 415.051 233.822C417.544 233.822 418.761 235.6 418.761 238.526V239.534C418.761 242.46 417.544 244.238 415.051 244.238ZM413.105 239.576C413.105 241.816 413.707 242.824 415.051 242.824C416.396 242.824 416.997 241.816 416.997 239.576V238.484C416.997 236.244 416.396 235.236 415.051 235.236C413.707 235.236 413.105 236.244 413.105 238.484V239.576Z" fill="white"/>
<path d="M420.877 244V234.06H424.265C426.449 234.06 427.695 235.138 427.695 237.028C427.695 238.288 427.009 239.226 425.805 239.632L428.017 244H426.127L424.125 239.926H422.599V244H420.877ZM422.599 238.694H424.111C425.273 238.694 425.889 238.106 425.889 237.042C425.889 235.978 425.273 235.39 424.111 235.39H422.599V238.694Z" fill="white"/>
<path d="M433.311 244.238C431.197 244.238 429.937 243.062 429.503 241.354L431.043 240.822C431.337 241.942 432.009 242.81 433.367 242.81C434.165 242.81 435.117 242.516 435.117 241.466C435.117 240.374 434.459 240.094 433.675 239.884L432.345 239.52C430.875 239.128 429.853 238.26 429.853 236.748C429.853 235.096 431.211 233.822 433.213 233.822C435.019 233.822 436.433 234.564 436.797 236.286L435.341 237.042C435.047 235.67 434.137 235.222 433.199 235.222C431.981 235.222 431.589 235.908 431.589 236.552C431.589 237.294 432.149 237.77 432.961 238.008L434.277 238.372C435.663 238.75 436.867 239.394 436.867 241.242C436.867 242.782 435.691 244.238 433.311 244.238Z" fill="white"/>
<path d="M448.084 244V234.06H451.262C453.88 234.06 455.364 236.048 455.364 238.96C455.364 241.928 453.754 244 451.234 244H448.084ZM449.806 242.628H451.122C452.732 242.628 453.6 241.074 453.6 238.96C453.6 236.888 452.788 235.432 451.15 235.432H449.806V242.628Z" fill="white"/>
<path d="M456.57 244L459.566 234.06H461.554L464.55 244H462.856L462.128 241.466H458.978L458.264 244H456.57ZM459.37 240.08H461.736C461.176 238.19 460.812 236.706 460.588 235.488H460.532C460.308 236.706 459.93 238.19 459.37 240.08Z" fill="white"/>
<path d="M469.661 244.238C467.169 244.238 465.951 242.46 465.951 239.534V238.526C465.951 235.6 467.169 233.822 469.661 233.822C472.153 233.822 473.371 235.6 473.371 238.526V239.534C473.371 242.46 472.153 244.238 469.661 244.238ZM467.715 239.576C467.715 241.816 468.317 242.824 469.661 242.824C471.005 242.824 471.607 241.816 471.607 239.576V238.484C471.607 236.244 471.005 235.236 469.661 235.236C468.317 235.236 467.715 236.244 467.715 238.484V239.576Z" fill="white"/>
<g filter="url(#filter1_d_35_300)">
<path d="M324.211 198.073L328.34 219.938L334.054 212.127L343.348 209.426L324.211 198.073Z" fill="#FFB58A"/>
<path d="M324.211 198.073L328.34 219.938L334.054 212.127L343.348 209.426L324.211 198.073Z" stroke="white"/>
</g>
<rect y="132.84" width="126" height="32" fill="#97C4B3"/>
<path d="M9.302 154.84L8.56 144.9H10.142L10.422 151.06C10.464 151.998 10.464 152.6 10.464 153.034H10.604C10.618 152.754 10.66 152.278 10.856 151.284L11.64 147.378H13.04L13.824 151.284C14.02 152.278 14.062 152.754 14.076 153.034H14.216C14.216 152.6 14.216 151.998 14.258 151.06L14.538 144.9H16.12L15.392 154.84H13.404L12.662 150.948C12.508 150.15 12.438 149.436 12.41 148.946H12.27C12.242 149.436 12.172 150.15 12.032 150.948L11.276 154.84H9.302Z" fill="white"/>
<path d="M24.7736 144.9V154.84H23.0516V150.458H19.8316V154.84H18.1096V144.9H19.8316V149.086H23.0516V144.9H24.7736Z" fill="white"/>
<path d="M26.5533 154.84L29.5493 144.9H31.5373L34.5333 154.84H32.8393L32.1113 152.306H28.9613L28.2473 154.84H26.5533ZM29.3533 150.92H31.7193C31.1593 149.03 30.7953 147.546 30.5713 146.328H30.5153C30.2913 147.546 29.9133 149.03 29.3533 150.92Z" fill="white"/>
<path d="M35.8509 144.9H43.4109V146.356H40.4989V154.84H38.7629V146.356H35.8509V144.9Z" fill="white"/>
<path d="M46.6886 144.998C46.6046 145.324 46.4972 145.679 46.3666 146.062C46.2359 146.444 46.0912 146.827 45.9326 147.21C45.7832 147.583 45.6339 147.938 45.4846 148.274H44.5746C44.6399 148.012 44.7052 147.732 44.7706 147.434C44.8452 147.135 44.9106 146.836 44.9666 146.538C45.0319 146.23 45.0879 145.931 45.1346 145.642C45.1906 145.352 45.2372 145.086 45.2746 144.844H46.5906L46.6886 144.998Z" fill="white"/>
<path d="M51.6698 155.078C49.5558 155.078 48.2958 153.902 47.8618 152.194L49.4018 151.662C49.6958 152.782 50.3678 153.65 51.7258 153.65C52.5238 153.65 53.4758 153.356 53.4758 152.306C53.4758 151.214 52.8178 150.934 52.0338 150.724L50.7038 150.36C49.2338 149.968 48.2118 149.1 48.2118 147.588C48.2118 145.936 49.5698 144.662 51.5718 144.662C53.3778 144.662 54.7918 145.404 55.1558 147.126L53.6998 147.882C53.4058 146.51 52.4958 146.062 51.5578 146.062C50.3398 146.062 49.9478 146.748 49.9478 147.392C49.9478 148.134 50.5078 148.61 51.3198 148.848L52.6358 149.212C54.0218 149.59 55.2258 150.234 55.2258 152.082C55.2258 153.622 54.0498 155.078 51.6698 155.078Z" fill="white"/>
<path d="M65.8271 154.84L68.8231 144.9H70.8111L73.8071 154.84H72.1131L71.3851 152.306H68.2351L67.5211 154.84H65.8271ZM68.6271 150.92H70.9931C70.4331 149.03 70.0691 147.546 69.8451 146.328H69.7891C69.5651 147.546 69.1871 149.03 68.6271 150.92Z" fill="white"/>
<path d="M84.6464 154.84V144.9H87.8244C90.4424 144.9 91.9264 146.888 91.9264 149.8C91.9264 152.768 90.3164 154.84 87.7964 154.84H84.6464ZM86.3684 153.468H87.6844C89.2944 153.468 90.1624 151.914 90.1624 149.8C90.1624 147.728 89.3504 146.272 87.7124 146.272H86.3684V153.468Z" fill="white"/>
<path d="M93.132 154.84L96.128 144.9H98.116L101.112 154.84H99.418L98.69 152.306H95.54L94.826 154.84H93.132ZM95.932 150.92H98.298C97.738 149.03 97.374 147.546 97.15 146.328H97.094C96.87 147.546 96.492 149.03 95.932 150.92Z" fill="white"/>
<path d="M106.224 155.078C103.732 155.078 102.514 153.3 102.514 150.374V149.366C102.514 146.44 103.732 144.662 106.224 144.662C108.716 144.662 109.934 146.44 109.934 149.366V150.374C109.934 153.3 108.716 155.078 106.224 155.078ZM104.278 150.416C104.278 152.656 104.88 153.664 106.224 153.664C107.568 153.664 108.17 152.656 108.17 150.416V149.324C108.17 147.084 107.568 146.076 106.224 146.076C104.88 146.076 104.278 147.084 104.278 149.324V150.416Z" fill="white"/>
<path d="M112.945 151.648C112.945 151.293 112.978 150.99 113.043 150.738C113.118 150.476 113.239 150.229 113.407 149.996C113.585 149.762 113.823 149.52 114.121 149.268C114.485 148.96 114.765 148.703 114.961 148.498C115.167 148.292 115.311 148.092 115.395 147.896C115.479 147.7 115.521 147.462 115.521 147.182C115.521 146.734 115.377 146.388 115.087 146.146C114.798 145.903 114.378 145.782 113.827 145.782C113.37 145.782 112.964 145.842 112.609 145.964C112.255 146.076 111.914 146.211 111.587 146.37L111.153 145.39C111.527 145.194 111.937 145.03 112.385 144.9C112.843 144.769 113.351 144.704 113.911 144.704C114.798 144.704 115.484 144.923 115.969 145.362C116.455 145.8 116.697 146.398 116.697 147.154C116.697 147.574 116.627 147.933 116.487 148.232C116.357 148.521 116.165 148.792 115.913 149.044C115.671 149.286 115.381 149.548 115.045 149.828C114.737 150.089 114.499 150.318 114.331 150.514C114.173 150.71 114.065 150.906 114.009 151.102C113.953 151.288 113.925 151.517 113.925 151.788V152.026H112.945V151.648ZM112.623 154.084C112.623 153.738 112.703 153.496 112.861 153.356C113.029 153.216 113.239 153.146 113.491 153.146C113.725 153.146 113.925 153.216 114.093 153.356C114.261 153.496 114.345 153.738 114.345 154.084C114.345 154.42 114.261 154.662 114.093 154.812C113.925 154.961 113.725 155.036 113.491 155.036C113.239 155.036 113.029 154.961 112.861 154.812C112.703 154.662 112.623 154.42 112.623 154.084Z" fill="white"/>
<g filter="url(#filter2_d_35_300)">
<path d="M137.721 108.513L119.759 121.646L129.268 123.445L135.703 130.673L137.721 108.513Z" fill="#97C4B3"/>
<path d="M137.721 108.513L119.759 121.646L129.268 123.445L135.703 130.673L137.721 108.513Z" stroke="white"/>
</g>
<rect x="329" y="42" width="144" height="32" fill="#C0DBED"/>
<path d="M338.162 62.656H340.472V55.404H338.162V54.06H344.518V55.404H342.194V62.656H344.518V64H338.162V62.656Z" fill="white"/>
<path d="M351.716 60.15C351.954 60.738 352.122 61.27 352.192 61.55H352.248C352.192 61.158 352.164 60.612 352.164 60.206V54.06H353.774V64H351.926L349.154 57.616C348.93 57.084 348.748 56.44 348.706 56.314H348.636C348.692 56.636 348.72 57.084 348.72 57.448V64H347.11V54.06H349.126L351.716 60.15Z" fill="white"/>
<path d="M359.333 61.438C359.417 61.816 359.501 62.334 359.543 62.544H359.599C359.641 62.334 359.725 61.816 359.795 61.438L361.587 54.06H363.407L360.649 64H358.493L355.679 54.06H357.485L359.333 61.438Z" fill="white"/>
<path d="M371.669 54.06V55.474H367.399V58.218H371.431V59.604H367.399V62.586H371.767V64H365.677V54.06H371.669Z" fill="white"/>
<path d="M377.803 64.238C375.689 64.238 374.429 63.062 373.995 61.354L375.535 60.822C375.829 61.942 376.501 62.81 377.859 62.81C378.657 62.81 379.609 62.516 379.609 61.466C379.609 60.374 378.951 60.094 378.167 59.884L376.837 59.52C375.367 59.128 374.345 58.26 374.345 56.748C374.345 55.096 375.703 53.822 377.705 53.822C379.511 53.822 380.925 54.564 381.289 56.286L379.833 57.042C379.539 55.67 378.629 55.222 377.691 55.222C376.473 55.222 376.081 55.908 376.081 56.552C376.081 57.294 376.641 57.77 377.453 58.008L378.769 58.372C380.155 58.75 381.359 59.394 381.359 61.242C381.359 62.782 380.183 64.238 377.803 64.238Z" fill="white"/>
<path d="M383.054 54.06H390.614V55.516H387.702V64H385.966V55.516H383.054V54.06Z" fill="white"/>
<path d="M397.336 58.05L396.622 61.578H395.278L394.564 58.05C394.438 57.476 394.27 56.44 394.186 55.81H394.088C394.13 56.622 394.158 57.84 394.158 58.624V64H392.618V54.06H394.788L395.726 58.554C395.796 58.974 395.88 59.52 395.908 59.814H395.992C396.02 59.52 396.104 58.974 396.174 58.554L397.112 54.06H399.282V64H397.742V58.624C397.742 57.84 397.77 56.622 397.812 55.81H397.714C397.644 56.44 397.462 57.476 397.336 58.05Z" fill="white"/>
<path d="M408.075 54.06V55.474H403.805V58.218H407.837V59.604H403.805V62.586H408.173V64H402.083V54.06H408.075Z" fill="white"/>
<path d="M415.427 60.15C415.665 60.738 415.833 61.27 415.903 61.55H415.959C415.903 61.158 415.875 60.612 415.875 60.206V54.06H417.485V64H415.637L412.865 57.616C412.641 57.084 412.459 56.44 412.417 56.314H412.347C412.403 56.636 412.431 57.084 412.431 57.448V64H410.821V54.06H412.837L415.427 60.15Z" fill="white"/>
<path d="M419.461 54.06H427.021V55.516H424.109V64H422.373V55.516H419.461V54.06Z" fill="white"/>
<path d="M438.084 64V54.06H441.262C443.88 54.06 445.364 56.048 445.364 58.96C445.364 61.928 443.754 64 441.234 64H438.084ZM439.806 62.628H441.122C442.732 62.628 443.6 61.074 443.6 58.96C443.6 56.888 442.788 55.432 441.15 55.432H439.806V62.628Z" fill="white"/>
<path d="M446.57 64L449.566 54.06H451.554L454.55 64H452.856L452.128 61.466H448.978L448.264 64H446.57ZM449.37 60.08H451.736C451.176 58.19 450.812 56.706 450.588 55.488H450.532C450.308 56.706 449.93 58.19 449.37 60.08Z" fill="white"/>
<path d="M459.661 64.238C457.169 64.238 455.951 62.46 455.951 59.534V58.526C455.951 55.6 457.169 53.822 459.661 53.822C462.153 53.822 463.371 55.6 463.371 58.526V59.534C463.371 62.46 462.153 64.238 459.661 64.238ZM457.715 59.576C457.715 61.816 458.317 62.824 459.661 62.824C461.005 62.824 461.607 61.816 461.607 59.576V58.484C461.607 56.244 461.005 55.236 459.661 55.236C458.317 55.236 457.715 56.244 457.715 58.484V59.576Z" fill="white"/>
<g filter="url(#filter3_d_35_300)">
<path d="M313.68 14.995L317.056 36.9883L323.035 29.3781L332.416 26.9982L313.68 14.995Z" fill="#C0DBED"/>
<path d="M313.68 14.995L317.056 36.9883L323.035 29.3781L332.416 26.9982L313.68 14.995Z" stroke="white"/>
</g>
<rect x="504" y="125" width="86" height="32" fill="#EA8475"/>
<path d="M513.302 147L512.56 137.06H514.142L514.422 143.22C514.464 144.158 514.464 144.76 514.464 145.194H514.604C514.618 144.914 514.66 144.438 514.856 143.444L515.64 139.538H517.04L517.824 143.444C518.02 144.438 518.062 144.914 518.076 145.194H518.216C518.216 144.76 518.216 144.158 518.258 143.22L518.538 137.06H520.12L519.392 147H517.404L516.662 143.108C516.508 142.31 516.438 141.596 516.41 141.106H516.27C516.242 141.596 516.172 142.31 516.032 143.108L515.276 147H513.302Z" fill="white"/>
<path d="M528.774 137.06V147H527.052V142.618H523.832V147H522.11V137.06H523.832V141.246H527.052V137.06H528.774Z" fill="white"/>
<path d="M535.411 143.122V147H533.689V143.122L530.595 137.06H532.471L534.543 141.68L536.601 137.06H538.491L535.411 143.122Z" fill="white"/>
<path d="M549.373 147V137.06H552.551C555.169 137.06 556.653 139.048 556.653 141.96C556.653 144.928 555.043 147 552.523 147H549.373ZM551.095 145.628H552.411C554.021 145.628 554.889 144.074 554.889 141.96C554.889 139.888 554.077 138.432 552.439 138.432H551.095V145.628Z" fill="white"/>
<path d="M557.858 147L560.854 137.06H562.842L565.838 147H564.144L563.416 144.466H560.266L559.552 147H557.858ZM560.658 143.08H563.024C562.464 141.19 562.1 139.706 561.876 138.488H561.82C561.596 139.706 561.218 141.19 560.658 143.08Z" fill="white"/>
<path d="M570.95 147.238C568.458 147.238 567.24 145.46 567.24 142.534V141.526C567.24 138.6 568.458 136.822 570.95 136.822C573.442 136.822 574.66 138.6 574.66 141.526V142.534C574.66 145.46 573.442 147.238 570.95 147.238ZM569.004 142.576C569.004 144.816 569.606 145.824 570.95 145.824C572.294 145.824 572.896 144.816 572.896 142.576V141.484C572.896 139.244 572.294 138.236 570.95 138.236C569.606 138.236 569.004 139.244 569.004 141.484V142.576Z" fill="white"/>
<path d="M577.671 143.808C577.671 143.453 577.704 143.15 577.769 142.898C577.844 142.637 577.965 142.389 578.133 142.156C578.311 141.923 578.549 141.68 578.847 141.428C579.211 141.12 579.491 140.863 579.687 140.658C579.893 140.453 580.037 140.252 580.121 140.056C580.205 139.86 580.247 139.622 580.247 139.342C580.247 138.894 580.103 138.549 579.813 138.306C579.524 138.063 579.104 137.942 578.553 137.942C578.096 137.942 577.69 138.003 577.335 138.124C576.981 138.236 576.64 138.371 576.313 138.53L575.879 137.55C576.253 137.354 576.663 137.191 577.111 137.06C577.569 136.929 578.077 136.864 578.637 136.864C579.524 136.864 580.21 137.083 580.695 137.522C581.181 137.961 581.423 138.558 581.423 139.314C581.423 139.734 581.353 140.093 581.213 140.392C581.083 140.681 580.891 140.952 580.639 141.204C580.397 141.447 580.107 141.708 579.771 141.988C579.463 142.249 579.225 142.478 579.057 142.674C578.899 142.87 578.791 143.066 578.735 143.262C578.679 143.449 578.651 143.677 578.651 143.948V144.186H577.671V143.808ZM577.349 146.244C577.349 145.899 577.429 145.656 577.587 145.516C577.755 145.376 577.965 145.306 578.217 145.306C578.451 145.306 578.651 145.376 578.819 145.516C578.987 145.656 579.071 145.899 579.071 146.244C579.071 146.58 578.987 146.823 578.819 146.972C578.651 147.121 578.451 147.196 578.217 147.196C577.965 147.196 577.755 147.121 577.587 146.972C577.429 146.823 577.349 146.58 577.349 146.244Z" fill="white"/>
<g filter="url(#filter4_d_35_300)">
<path d="M489.68 104.995L493.056 126.988L499.035 119.378L508.416 116.998L489.68 104.995Z" fill="#EA8475"/>
<path d="M489.68 104.995L493.056 126.988L499.035 119.378L508.416 116.998L489.68 104.995Z" stroke="white"/>
</g>
<defs>
<filter id="filter0_d_35_300" x="285.6" y="386.367" width="27.2402" height="31.0244" filterUnits="userSpaceOnUse" color-interpolation-filters="sRGB">
<feFlood flood-opacity="0" result="BackgroundImageFix"/>
<feColorMatrix in="SourceAlpha" type="matrix" values="0 0 0 0 0 0 0 0 0 0 0 0 0 0 0 0 0 0 127 0" result="hardAlpha"/>
<feOffset dy="4"/>
<feGaussianBlur stdDeviation="1.5"/>
<feComposite in2="hardAlpha" operator="out"/>
<feColorMatrix type="matrix" values="0 0 0 0 0 0 0 0 0 0 0 0 0 0 0 0 0 0 0.2 0"/>
<feBlend mode="normal" in2="BackgroundImageFix" result="effect1_dropShadow_35_300"/>
<feBlend mode="normal" in="SourceGraphic" in2="effect1_dropShadow_35_300" result="shape"/>
</filter>
<filter id="filter1_d_35_300" x="320.514" y="197.079" width="27.0806" height="31.085" filterUnits="userSpaceOnUse" color-interpolation-filters="sRGB">
<feFlood flood-opacity="0" result="BackgroundImageFix"/>
<feColorMatrix in="SourceAlpha" type="matrix" values="0 0 0 0 0 0 0 0 0 0 0 0 0 0 0 0 0 0 127 0" result="hardAlpha"/>
<feOffset dy="4"/>
<feGaussianBlur stdDeviation="1.5"/>
<feComposite in2="hardAlpha" operator="out"/>
<feColorMatrix type="matrix" values="0 0 0 0 0 0 0 0 0 0 0 0 0 0 0 0 0 0 0.2 0"/>
<feBlend mode="normal" in2="BackgroundImageFix" result="effect1_dropShadow_35_300"/>
<feBlend mode="normal" in="SourceGraphic" in2="effect1_dropShadow_35_300" result="shape"/>
</filter>
<filter id="filter2_d_35_300" x="115.533" y="107.457" width="25.7866" height="31.4097" filterUnits="userSpaceOnUse" color-interpolation-filters="sRGB">
<feFlood flood-opacity="0" result="BackgroundImageFix"/>
<feColorMatrix in="SourceAlpha" type="matrix" values="0 0 0 0 0 0 0 0 0 0 0 0 0 0 0 0 0 0 127 0" result="hardAlpha"/>
<feOffset dy="4"/>
<feGaussianBlur stdDeviation="1.5"/>
<feComposite in2="hardAlpha" operator="out"/>
<feColorMatrix type="matrix" values="0 0 0 0 0 0 0 0 0 0 0 0 0 0 0 0 0 0 0.2 0"/>
<feBlend mode="normal" in2="BackgroundImageFix" result="effect1_dropShadow_35_300"/>
<feBlend mode="normal" in="SourceGraphic" in2="effect1_dropShadow_35_300" result="shape"/>
</filter>
<filter id="filter3_d_35_300" x="310.018" y="13.9771" width="26.6385" height="31.2268" filterUnits="userSpaceOnUse" color-interpolation-filters="sRGB">
<feFlood flood-opacity="0" result="BackgroundImageFix"/>
<feColorMatrix in="SourceAlpha" type="matrix" values="0 0 0 0 0 0 0 0 0 0 0 0 0 0 0 0 0 0 127 0" result="hardAlpha"/>
<feOffset dy="4"/>
<feGaussianBlur stdDeviation="1.5"/>
<feComposite in2="hardAlpha" operator="out"/>
<feColorMatrix type="matrix" values="0 0 0 0 0 0 0 0 0 0 0 0 0 0 0 0 0 0 0.2 0"/>
<feBlend mode="normal" in2="BackgroundImageFix" result="effect1_dropShadow_35_300"/>
<feBlend mode="normal" in="SourceGraphic" in2="effect1_dropShadow_35_300" result="shape"/>
</filter>
<filter id="filter4_d_35_300" x="486.018" y="103.977" width="26.6385" height="31.2268" filterUnits="userSpaceOnUse" color-interpolation-filters="sRGB">
<feFlood flood-opacity="0" result="BackgroundImageFix"/>
<feColorMatrix in="SourceAlpha" type="matrix" values="0 0 0 0 0 0 0 0 0 0 0 0 0 0 0 0 0 0 127 0" result="hardAlpha"/>
<feOffset dy="4"/>
<feGaussianBlur stdDeviation="1.5"/>
<feComposite in2="hardAlpha" operator="out"/>
<feColorMatrix type="matrix" values="0 0 0 0 0 0 0 0 0 0 0 0 0 0 0 0 0 0 0.2 0"/>
<feBlend mode="normal" in2="BackgroundImageFix" result="effect1_dropShadow_35_300"/>
<feBlend mode="normal" in="SourceGraphic" in2="effect1_dropShadow_35_300" result="shape"/>
</filter>
</defs>
</svg>
