<svg width="359" height="270" viewBox="0 0 359 270" fill="none" xmlns="http://www.w3.org/2000/svg">
<rect x="113.12" y="249.578" width="65.0744" height="19.4615" fill="#ADBCE1"/>
<path d="M118.573 262.958V256.913H120.505C122.098 256.913 123 258.122 123 259.893C123 261.698 122.021 262.958 120.488 262.958H118.573ZM119.62 262.124H120.42C121.399 262.124 121.927 261.179 121.927 259.893C121.927 258.633 121.433 257.747 120.437 257.747H119.62V262.124Z" fill="white"/>
<path d="M123.733 262.958L125.555 256.913H126.764L128.587 262.958H127.556L127.114 261.417H125.198L124.764 262.958H123.733ZM125.436 260.574H126.875C126.535 259.425 126.313 258.522 126.177 257.781H126.143C126.007 258.522 125.777 259.425 125.436 260.574Z" fill="white"/>
<path d="M131.695 263.103C130.18 263.103 129.439 262.021 129.439 260.242V259.629C129.439 257.849 130.18 256.768 131.695 256.768C133.211 256.768 133.952 257.849 133.952 259.629V260.242C133.952 262.021 133.211 263.103 131.695 263.103ZM130.512 260.267C130.512 261.63 130.878 262.243 131.695 262.243C132.513 262.243 132.879 261.63 132.879 260.267V259.603C132.879 258.241 132.513 257.628 131.695 257.628C130.878 257.628 130.512 258.241 130.512 259.603V260.267Z" fill="white"/>
<path d="M142.8 263.103C141.514 263.103 140.748 262.388 140.484 261.349L141.421 261.025C141.6 261.706 142.008 262.234 142.834 262.234C143.319 262.234 143.898 262.056 143.898 261.417C143.898 260.753 143.498 260.583 143.021 260.455L142.213 260.233C141.319 259.995 140.697 259.467 140.697 258.548C140.697 257.543 141.523 256.768 142.74 256.768C143.839 256.768 144.699 257.219 144.92 258.267L144.035 258.726C143.856 257.892 143.302 257.62 142.732 257.62C141.991 257.62 141.753 258.037 141.753 258.428C141.753 258.88 142.093 259.169 142.587 259.314L143.388 259.535C144.231 259.765 144.963 260.157 144.963 261.281C144.963 262.217 144.248 263.103 142.8 263.103Z" fill="white"/>
<path d="M150.141 256.913V257.773H147.544V259.442H149.996V260.285H147.544V262.098H150.2V262.958H146.496V256.913H150.141Z" fill="white"/>
<path d="M151.529 256.913H156.127V257.798H154.356V262.958H153.3V257.798H151.529V256.913Z" fill="white"/>
<path d="M158.061 260.14H160.675V261.042H158.061V260.14Z" fill="white"/>
<path d="M162.787 256.913H163.843V260.983C163.843 261.732 164.209 262.226 164.924 262.226C165.648 262.226 165.963 261.732 165.963 260.983V256.913H167.019V260.991C167.019 262.251 166.329 263.103 164.933 263.103C163.537 263.103 162.787 262.251 162.787 260.991V256.913Z" fill="white"/>
<path d="M170.528 259.799C171.482 259.799 171.694 259.237 171.694 258.76C171.694 258.275 171.482 257.722 170.588 257.722H169.694V259.799H170.528ZM168.646 262.958V256.913H170.732C172.359 256.913 172.793 257.918 172.793 258.735C172.793 259.569 172.307 260.583 170.639 260.583H169.694V262.958H168.646Z" fill="white"/>
<g filter="url(#filter0_d_41_493)">
<path d="M188.005 236.36L176.278 243.114L181.908 244.829L185.322 249.624L188.005 236.36Z" fill="#ADBCE1"/>
<path d="M188.005 236.36L176.278 243.114L181.908 244.829L185.322 249.624L188.005 236.36Z" stroke="white"/>
</g>
<path d="M289.447 59.3774L190.032 116.755L90.6174 59.3774" stroke="#222222" stroke-width="3" stroke-miterlimit="10"/>
<path d="M190.032 231.512V116.756" stroke="#222222" stroke-width="3" stroke-miterlimit="10"/>
<path d="M156.908 212.238V97.4827" stroke="#222222" stroke-width="3" stroke-miterlimit="10"/>
<path d="M121.026 192.169V77.4136" stroke="#222222" stroke-width="3" stroke-miterlimit="10"/>
<path d="M289.447 59.3779L190.032 2L90.6174 59.3779V174.134L190.032 231.512L289.447 174.134V59.3779Z" stroke="#222222" stroke-width="3" stroke-miterlimit="10"/>
<rect x="206.17" y="135.798" width="87.5767" height="19.4615" fill="#FFB58A"/>
<path d="M213.667 149.323C212.177 149.323 211.444 148.234 211.444 146.471V145.841C211.444 144.079 212.202 142.989 213.718 142.989C215.012 142.989 215.804 143.687 215.914 145.177L214.867 145.339C214.816 144.385 214.416 143.857 213.709 143.857C212.892 143.857 212.517 144.496 212.517 145.824V146.429C212.517 147.748 212.909 148.455 213.709 148.455C214.424 148.455 214.816 147.936 214.867 146.965L215.906 147.161C215.821 148.438 215.063 149.323 213.667 149.323Z" fill="white"/>
<path d="M219.21 149.323C217.695 149.323 216.954 148.242 216.954 146.463V145.85C216.954 144.07 217.695 142.989 219.21 142.989C220.726 142.989 221.467 144.07 221.467 145.85V146.463C221.467 148.242 220.726 149.323 219.21 149.323ZM218.027 146.488C218.027 147.85 218.393 148.464 219.21 148.464C220.028 148.464 220.394 147.85 220.394 146.488V145.824C220.394 144.462 220.028 143.849 219.21 143.849C218.393 143.849 218.027 144.462 218.027 145.824V146.488Z" fill="white"/>
<path d="M223 143.134H224.048V148.293H226.789V149.179H223V143.134Z" fill="white"/>
<path d="M228.536 143.134H229.583V148.293H232.325V149.179H228.536V143.134Z" fill="white"/>
<path d="M237.656 143.134V143.993H235.059V145.662H237.511V146.505H235.059V148.319H237.715V149.179H234.011V143.134H237.656Z" fill="white"/>
<path d="M241.343 149.323C239.853 149.323 239.121 148.234 239.121 146.471V145.841C239.121 144.079 239.879 142.989 241.394 142.989C242.689 142.989 243.48 143.687 243.591 145.177L242.544 145.339C242.493 144.385 242.093 143.857 241.386 143.857C240.569 143.857 240.194 144.496 240.194 145.824V146.429C240.194 147.748 240.586 148.455 241.386 148.455C242.101 148.455 242.493 147.936 242.544 146.965L243.583 147.161C243.498 148.438 242.74 149.323 241.343 149.323Z" fill="white"/>
<path d="M244.58 143.134H249.178V144.019H247.407V149.179H246.351V144.019H244.58V143.134Z" fill="white"/>
<path d="M252.423 149.323C250.907 149.323 250.166 148.242 250.166 146.463V145.85C250.166 144.07 250.907 142.989 252.423 142.989C253.938 142.989 254.679 144.07 254.679 145.85V146.463C254.679 148.242 253.938 149.323 252.423 149.323ZM251.239 146.488C251.239 147.85 251.605 148.464 252.423 148.464C253.24 148.464 253.606 147.85 253.606 146.488V145.824C253.606 144.462 253.24 143.849 252.423 143.849C251.605 143.849 251.239 144.462 251.239 145.824V146.488Z" fill="white"/>
<path d="M255.966 149.179V143.134H258.026C259.354 143.134 260.112 143.789 260.112 144.939C260.112 145.705 259.695 146.275 258.963 146.522L260.308 149.179H259.159L257.941 146.701H257.013V149.179H255.966ZM257.013 145.952H257.932C258.639 145.952 259.014 145.594 259.014 144.947C259.014 144.3 258.639 143.942 257.932 143.942H257.013V145.952Z" fill="white"/>
<path d="M263.527 149.323C262.242 149.323 261.475 148.608 261.211 147.57L262.148 147.246C262.327 147.927 262.736 148.455 263.561 148.455C264.047 148.455 264.626 148.276 264.626 147.638C264.626 146.974 264.226 146.803 263.749 146.676L262.94 146.454C262.046 146.216 261.424 145.688 261.424 144.768C261.424 143.764 262.25 142.989 263.468 142.989C264.566 142.989 265.426 143.44 265.647 144.487L264.762 144.947C264.583 144.113 264.03 143.84 263.459 143.84C262.719 143.84 262.48 144.257 262.48 144.649C262.48 145.1 262.821 145.39 263.315 145.535L264.115 145.756C264.958 145.986 265.69 146.378 265.69 147.501C265.69 148.438 264.975 149.323 263.527 149.323Z" fill="white"/>
<path d="M272.512 149.179V143.134H274.445C276.037 143.134 276.94 144.343 276.94 146.114C276.94 147.919 275.96 149.179 274.428 149.179H272.512ZM273.559 148.344H274.36C275.339 148.344 275.867 147.399 275.867 146.114C275.867 144.853 275.373 143.968 274.377 143.968H273.559V148.344Z" fill="white"/>
<path d="M277.673 149.179L279.495 143.134H280.704L282.526 149.179H281.496L281.053 147.638H279.137L278.703 149.179H277.673ZM279.376 146.795H280.815C280.474 145.645 280.253 144.743 280.116 144.002H280.082C279.946 144.743 279.716 145.645 279.376 146.795Z" fill="white"/>
<path d="M285.635 149.323C284.119 149.323 283.378 148.242 283.378 146.463V145.85C283.378 144.07 284.119 142.989 285.635 142.989C287.15 142.989 287.891 144.07 287.891 145.85V146.463C287.891 148.242 287.15 149.323 285.635 149.323ZM284.451 146.488C284.451 147.85 284.817 148.464 285.635 148.464C286.452 148.464 286.818 147.85 286.818 146.488V145.824C286.818 144.462 286.452 143.849 285.635 143.849C284.817 143.849 284.451 144.462 284.451 145.824V146.488Z" fill="white"/>
<g filter="url(#filter1_d_41_493)">
<path d="M197.176 121.246L199.687 134.543L203.162 129.793L208.814 128.15L197.176 121.246Z" fill="#FFB58A"/>
<path d="M197.176 121.246L199.687 134.543L203.162 129.793L208.814 128.15L197.176 121.246Z" stroke="white"/>
</g>
<rect y="81.573" width="76.6296" height="19.4615" fill="#97C4B3"/>
<path d="M5.65732 94.9527L5.20605 88.9074H6.16818L6.33847 92.6538C6.36401 93.2242 6.36401 93.5904 6.36401 93.8543H6.44916C6.45767 93.684 6.48321 93.3945 6.60242 92.79L7.07922 90.4145H7.93066L8.40747 92.79C8.52667 93.3945 8.55221 93.684 8.56073 93.8543H8.64587C8.64587 93.5904 8.64587 93.2242 8.67142 92.6538L8.8417 88.9074H9.80383L9.36108 94.9527H8.15204L7.70077 92.5857C7.60712 92.1003 7.56454 91.6661 7.54752 91.3681H7.46237C7.44534 91.6661 7.40277 92.1003 7.31763 92.5857L6.85785 94.9527H5.65732Z" fill="white"/>
<path d="M15.0667 88.9074V94.9527H14.0195V92.2877H12.0611V94.9527H11.0139V88.9074H12.0611V91.4532H14.0195V88.9074H15.0667Z" fill="white"/>
<path d="M16.1491 94.9527L17.9711 88.9074H19.1802L21.0023 94.9527H19.972L19.5293 93.4116H17.6135L17.1793 94.9527H16.1491ZM17.8519 92.5686H19.2909C18.9503 91.4192 18.7289 90.5167 18.5927 89.7759H18.5586C18.4224 90.5167 18.1925 91.4192 17.8519 92.5686Z" fill="white"/>
<path d="M21.8036 88.9074H26.4014V89.7929H24.6304V94.9527H23.5746V89.7929H21.8036V88.9074Z" fill="white"/>
<path d="M28.3948 88.967C28.3437 89.1657 28.2784 89.3814 28.1989 89.6141C28.1195 89.8469 28.0315 90.0796 27.935 90.3123C27.8442 90.5394 27.7533 90.7551 27.6625 90.9594H27.1091C27.1488 90.8005 27.1886 90.6302 27.2283 90.4485C27.2737 90.2669 27.3134 90.0853 27.3475 89.9036C27.3872 89.7163 27.4213 89.5347 27.4497 89.3587C27.4837 89.1827 27.5121 89.021 27.5348 88.8734H28.3352L28.3948 88.967Z" fill="white"/>
<path d="M31.4242 95.0974C30.1385 95.0974 29.3723 94.3822 29.1083 93.3434L30.0449 93.0199C30.2237 93.701 30.6324 94.2289 31.4583 94.2289C31.9436 94.2289 32.5226 94.0501 32.5226 93.4116C32.5226 92.7474 32.1224 92.5771 31.6456 92.4494L30.8367 92.2281C29.9427 91.9897 29.3212 91.4618 29.3212 90.5422C29.3212 89.5375 30.1471 88.7627 31.3646 88.7627C32.463 88.7627 33.3229 89.214 33.5443 90.2612L32.6588 90.721C32.48 89.8866 31.9266 89.6141 31.3561 89.6141C30.6154 89.6141 30.377 90.0313 30.377 90.423C30.377 90.8743 30.7175 91.1638 31.2114 91.3085L32.0117 91.5299C32.8546 91.7598 33.5869 92.1514 33.5869 93.2753C33.5869 94.2119 32.8717 95.0974 31.4242 95.0974Z" fill="white"/>
<path d="M40.0343 94.9527L41.8564 88.9074H43.0654L44.8875 94.9527H43.8572L43.4145 93.4116H41.4988L41.0645 94.9527H40.0343ZM41.7372 92.5686H43.1761C42.8355 91.4192 42.6141 90.5167 42.4779 89.7759H42.4439C42.3076 90.5167 42.0777 91.4192 41.7372 92.5686Z" fill="white"/>
<path d="M51.4796 94.9527V88.9074H53.4124C55.0046 88.9074 55.9071 90.1165 55.9071 91.8875C55.9071 93.6925 54.928 94.9527 53.3954 94.9527H51.4796ZM52.5269 94.1183H53.3273C54.3064 94.1183 54.8343 93.1732 54.8343 91.8875C54.8343 90.6273 54.3405 89.7419 53.3443 89.7419H52.5269V94.1183Z" fill="white"/>
<path d="M56.6404 94.9527L58.4624 88.9074H59.6715L61.4936 94.9527H60.4633L60.0206 93.4116H58.1048L57.6706 94.9527H56.6404ZM58.3432 92.5686H59.7822C59.4416 91.4192 59.2202 90.5167 59.084 89.7759H59.0499C58.9137 90.5167 58.6838 91.4192 58.3432 92.5686Z" fill="white"/>
<path d="M64.6023 95.0974C63.0868 95.0974 62.346 94.0161 62.346 92.2366V91.6235C62.346 89.844 63.0868 88.7627 64.6023 88.7627C66.1179 88.7627 66.8586 89.844 66.8586 91.6235V92.2366C66.8586 94.0161 66.1179 95.0974 64.6023 95.0974ZM63.4188 92.2621C63.4188 93.6244 63.7849 94.2375 64.6023 94.2375C65.4197 94.2375 65.7858 93.6244 65.7858 92.2621V91.598C65.7858 90.2357 65.4197 89.6226 64.6023 89.6226C63.7849 89.6226 63.4188 90.2357 63.4188 91.598V92.2621Z" fill="white"/>
<path d="M68.6902 93.0114C68.6902 92.7957 68.7101 92.6112 68.7498 92.4579C68.7952 92.299 68.869 92.1486 68.9712 92.0067C69.0791 91.8648 69.2238 91.7172 69.4054 91.5639C69.6268 91.3766 69.7971 91.2205 69.9163 91.0956C70.0412 90.9708 70.1292 90.8487 70.1803 90.7295C70.2313 90.6103 70.2569 90.4656 70.2569 90.2953C70.2569 90.0228 70.1689 89.8128 69.9929 89.6652C69.817 89.5176 69.5615 89.4438 69.2266 89.4438C68.9485 89.4438 68.7016 89.4807 68.4859 89.5545C68.2702 89.6227 68.063 89.705 67.8643 89.8015L67.6004 89.2054C67.8274 89.0862 68.0772 88.9869 68.3497 88.9074C68.6278 88.828 68.9371 88.7882 69.2777 88.7882C69.817 88.7882 70.2342 88.9216 70.5293 89.1884C70.8245 89.4552 70.9721 89.8185 70.9721 90.2783C70.9721 90.5337 70.9295 90.7522 70.8444 90.9339C70.7649 91.1098 70.6485 91.2744 70.4953 91.4277C70.3477 91.5753 70.1717 91.7342 69.9674 91.9045C69.7801 92.0634 69.6353 92.2025 69.5332 92.3217C69.4367 92.4409 69.3714 92.5601 69.3373 92.6793C69.3033 92.7928 69.2862 92.9319 69.2862 93.0965V93.2413H68.6902V93.0114ZM68.4944 94.4929C68.4944 94.2829 68.5426 94.1353 68.6391 94.0501C68.7413 93.965 68.869 93.9224 69.0223 93.9224C69.1642 93.9224 69.2862 93.965 69.3884 94.0501C69.4906 94.1353 69.5417 94.2829 69.5417 94.4929C69.5417 94.6972 69.4906 94.8448 69.3884 94.9356C69.2862 95.0265 69.1642 95.0719 69.0223 95.0719C68.869 95.0719 68.7413 95.0265 68.6391 94.9356C68.5426 94.8448 68.4944 94.6972 68.4944 94.4929Z" fill="white"/>
<g filter="url(#filter2_d_41_493)">
<path d="M83.7579 66.7784L72.8338 74.7651L78.6171 75.859L82.531 80.255L83.7579 66.7784Z" fill="#97C4B3"/>
<path d="M83.7579 66.7784L72.8338 74.7651L78.6171 75.859L82.531 80.255L83.7579 66.7784Z" stroke="white"/>
</g>
<rect x="200.089" y="26.3281" width="87.5767" height="19.4615" fill="#C0DBED"/>
<path d="M205.661 38.8897H207.066V34.4792H205.661V33.6618H209.526V34.4792H208.113V38.8897H209.526V39.7071H205.661V38.8897Z" fill="white"/>
<path d="M213.904 37.3656C214.048 37.7232 214.151 38.0468 214.193 38.217H214.227C214.193 37.9786 214.176 37.6466 214.176 37.3997V33.6618H215.155V39.7071H214.031L212.345 35.8245C212.209 35.5009 212.099 35.1093 212.073 35.0327H212.03C212.064 35.2285 212.082 35.5009 212.082 35.7223V39.7071H211.102V33.6618H212.328L213.904 37.3656Z" fill="white"/>
<path d="M218.536 38.1489C218.588 38.3788 218.639 38.6938 218.664 38.8216H218.698C218.724 38.6938 218.775 38.3788 218.817 38.1489L219.907 33.6618H221.014L219.337 39.7071H218.026L216.314 33.6618H217.413L218.536 38.1489Z" fill="white"/>
<path d="M226.039 33.6618V34.5218H223.442V36.1906H225.894V37.0335H223.442V38.8471H226.098V39.7071H222.394V33.6618H226.039Z" fill="white"/>
<path d="M229.769 39.8518C228.483 39.8518 227.717 39.1366 227.453 38.0978L228.39 37.7743C228.568 38.4554 228.977 38.9833 229.803 38.9833C230.288 38.9833 230.867 38.8045 230.867 38.166C230.867 37.5018 230.467 37.3315 229.99 37.2038L229.181 36.9825C228.287 36.744 227.666 36.2162 227.666 35.2966C227.666 34.2919 228.492 33.5171 229.709 33.5171C230.808 33.5171 231.668 33.9684 231.889 35.0156L231.003 35.4754C230.825 34.641 230.271 34.3685 229.701 34.3685C228.96 34.3685 228.722 34.7857 228.722 35.1774C228.722 35.6287 229.062 35.9182 229.556 36.0629L230.356 36.2843C231.199 36.5142 231.932 36.9058 231.932 38.0297C231.932 38.9663 231.216 39.8518 229.769 39.8518Z" fill="white"/>
<path d="M232.963 33.6618H237.561V34.5473H235.79V39.7071H234.734V34.5473H232.963V33.6618Z" fill="white"/>
<path d="M241.648 36.0884L241.214 38.2341H240.397L239.963 36.0884C239.886 35.7393 239.784 35.1093 239.733 34.7261H239.673C239.699 35.22 239.716 35.9607 239.716 36.4375V39.7071H238.779V33.6618H240.099L240.669 36.395C240.712 36.6504 240.763 36.9825 240.78 37.1613H240.831C240.848 36.9825 240.899 36.6504 240.942 36.395L241.512 33.6618H242.832V39.7071H241.895V36.4375C241.895 35.9607 241.912 35.22 241.938 34.7261H241.878C241.836 35.1093 241.725 35.7393 241.648 36.0884Z" fill="white"/>
<path d="M248.18 33.6618V34.5218H245.583V36.1906H248.035V37.0335H245.583V38.8471H248.24V39.7071H244.536V33.6618H248.18Z" fill="white"/>
<path d="M252.651 37.3656C252.796 37.7232 252.898 38.0468 252.941 38.217H252.975C252.941 37.9786 252.924 37.6466 252.924 37.3997V33.6618H253.903V39.7071H252.779L251.093 35.8245C250.957 35.5009 250.846 35.1093 250.82 35.0327H250.778C250.812 35.2285 250.829 35.5009 250.829 35.7223V39.7071H249.85V33.6618H251.076L252.651 37.3656Z" fill="white"/>
<path d="M255.104 33.6618H259.702V34.5473H257.931V39.7071H256.875V34.5473H255.104V33.6618Z" fill="white"/>
<path d="M266.43 39.7071V33.6618H268.363C269.955 33.6618 270.858 34.8709 270.858 36.6419C270.858 38.4469 269.879 39.7071 268.346 39.7071H266.43ZM267.478 38.8726H268.278C269.257 38.8726 269.785 37.9275 269.785 36.6419C269.785 35.3817 269.291 34.4962 268.295 34.4962H267.478V38.8726Z" fill="white"/>
<path d="M271.591 39.7071L273.413 33.6618H274.622L276.444 39.7071H275.414L274.971 38.166H273.056L272.621 39.7071H271.591ZM273.294 37.323H274.733C274.392 36.1736 274.171 35.2711 274.035 34.5303H274.001C273.864 35.2711 273.635 36.1736 273.294 37.323Z" fill="white"/>
<path d="M279.553 39.8518C278.038 39.8518 277.297 38.7705 277.297 36.991V36.3779C277.297 34.5984 278.038 33.5171 279.553 33.5171C281.069 33.5171 281.809 34.5984 281.809 36.3779V36.991C281.809 38.7705 281.069 39.8518 279.553 39.8518ZM278.37 37.0165C278.37 38.3788 278.736 38.9918 279.553 38.9918C280.37 38.9918 280.737 38.3788 280.737 37.0165V36.3524C280.737 34.9901 280.37 34.377 279.553 34.377C278.736 34.377 278.37 34.9901 278.37 36.3524V37.0165Z" fill="white"/>
<g filter="url(#filter3_d_41_493)">
<path d="M190.771 9.90357L192.824 23.2793L196.461 18.651L202.166 17.2036L190.771 9.90357Z" fill="#C0DBED"/>
<path d="M190.771 9.90357L192.824 23.2793L196.461 18.651L202.166 17.2036L190.771 9.90357Z" stroke="white"/>
</g>
<rect x="306.518" y="76.8047" width="52.3028" height="19.4615" fill="#EA8475"/>
<path d="M312.176 90.1844L311.724 84.1391H312.686L312.857 87.8855C312.882 88.4559 312.882 88.8221 312.882 89.086H312.967C312.976 88.9157 313.002 88.6262 313.121 88.0217L313.598 85.6462H314.449L314.926 88.0217C315.045 88.6262 315.071 88.9157 315.079 89.086H315.164C315.164 88.8221 315.164 88.4559 315.19 87.8855L315.36 84.1391H316.322L315.879 90.1844H314.67L314.219 87.8174C314.125 87.332 314.083 86.8978 314.066 86.5998H313.981C313.964 86.8978 313.921 87.332 313.836 87.8174L313.376 90.1844H312.176Z" fill="white"/>
<path d="M321.585 84.1391V90.1844H320.538V87.5193H318.579V90.1844H317.532V84.1391H318.579V86.6849H320.538V84.1391H321.585Z" fill="white"/>
<path d="M325.622 87.8259V90.1844H324.575V87.8259L322.693 84.1391H323.834L325.094 86.9489L326.346 84.1391H327.495L325.622 87.8259Z" fill="white"/>
<path d="M334.113 90.1844V84.1391H336.045C337.638 84.1391 338.54 85.3482 338.54 87.1192C338.54 88.9242 337.561 90.1844 336.028 90.1844H334.113ZM335.16 89.3499H335.96C336.94 89.3499 337.467 88.4048 337.467 87.1192C337.467 85.859 336.974 84.9735 335.977 84.9735H335.16V89.3499Z" fill="white"/>
<path d="M339.273 90.1844L341.096 84.1391H342.305L344.127 90.1844H343.096L342.654 88.6432H340.738L340.304 90.1844H339.273ZM340.976 87.8003H342.415C342.075 86.6509 341.853 85.7484 341.717 85.0076H341.683C341.547 85.7484 341.317 86.6509 340.976 87.8003Z" fill="white"/>
<path d="M347.235 90.3291C345.72 90.3291 344.979 89.2478 344.979 87.4683V86.8552C344.979 85.0757 345.72 83.9944 347.235 83.9944C348.751 83.9944 349.492 85.0757 349.492 86.8552V87.4683C349.492 89.2478 348.751 90.3291 347.235 90.3291ZM346.052 87.4938C346.052 88.8561 346.418 89.4691 347.235 89.4691C348.053 89.4691 348.419 88.8561 348.419 87.4938V86.8297C348.419 85.4674 348.053 84.8543 347.235 84.8543C346.418 84.8543 346.052 85.4674 346.052 86.8297V87.4938Z" fill="white"/>
<path d="M351.323 88.2431C351.323 88.0274 351.343 87.8429 351.383 87.6896C351.428 87.5307 351.502 87.3803 351.604 87.2384C351.712 87.0965 351.857 86.9489 352.039 86.7956C352.26 86.6083 352.43 86.4522 352.549 86.3273C352.674 86.2025 352.762 86.0804 352.813 85.9612C352.864 85.842 352.89 85.6973 352.89 85.527C352.89 85.2545 352.802 85.0445 352.626 84.8969C352.45 84.7493 352.195 84.6755 351.86 84.6755C351.582 84.6755 351.335 84.7124 351.119 84.7862C350.903 84.8543 350.696 84.9366 350.497 85.0331L350.233 84.4371C350.461 84.3179 350.71 84.2186 350.983 84.1391C351.261 84.0597 351.57 84.0199 351.911 84.0199C352.45 84.0199 352.867 84.1533 353.162 84.4201C353.458 84.6869 353.605 85.0502 353.605 85.5099C353.605 85.7654 353.563 85.9839 353.477 86.1656C353.398 86.3415 353.282 86.5061 353.128 86.6594C352.981 86.807 352.805 86.9659 352.6 87.1362C352.413 87.2951 352.268 87.4342 352.166 87.5534C352.07 87.6726 352.004 87.7918 351.97 87.911C351.936 88.0245 351.919 88.1636 351.919 88.3282V88.473H351.323V88.2431ZM351.127 89.7246C351.127 89.5146 351.176 89.367 351.272 89.2818C351.374 89.1967 351.502 89.1541 351.655 89.1541C351.797 89.1541 351.919 89.1967 352.022 89.2818C352.124 89.367 352.175 89.5146 352.175 89.7246C352.175 89.9289 352.124 90.0765 352.022 90.1673C351.919 90.2581 351.797 90.3036 351.655 90.3036C351.502 90.3036 351.374 90.2581 351.272 90.1673C351.176 90.0765 351.127 89.9289 351.127 89.7246Z" fill="white"/>
<g filter="url(#filter4_d_41_493)">
<path d="M297.81 64.6382L299.863 78.0139L303.499 73.3856L309.204 71.9382L297.81 64.6382Z" fill="#EA8475"/>
<path d="M297.81 64.6382L299.863 78.0139L303.499 73.3856L309.204 71.9382L297.81 64.6382Z" stroke="white"/>
</g>
<defs>
<filter id="filter0_d_41_493" x="172.029" y="235.375" width="19.6851" height="22.4788" filterUnits="userSpaceOnUse" color-interpolation-filters="sRGB">
<feFlood flood-opacity="0" result="BackgroundImageFix"/>
<feColorMatrix in="SourceAlpha" type="matrix" values="0 0 0 0 0 0 0 0 0 0 0 0 0 0 0 0 0 0 127 0" result="hardAlpha"/>
<feOffset dy="4"/>
<feGaussianBlur stdDeviation="1.5"/>
<feComposite in2="hardAlpha" operator="out"/>
<feColorMatrix type="matrix" values="0 0 0 0 0 0 0 0 0 0 0 0 0 0 0 0 0 0 0.2 0"/>
<feBlend mode="normal" in2="BackgroundImageFix" result="effect1_dropShadow_41_493"/>
<feBlend mode="normal" in="SourceGraphic" in2="effect1_dropShadow_41_493" result="shape"/>
</filter>
<filter id="filter1_d_41_493" x="193.479" y="120.251" width="19.5823" height="22.5178" filterUnits="userSpaceOnUse" color-interpolation-filters="sRGB">
<feFlood flood-opacity="0" result="BackgroundImageFix"/>
<feColorMatrix in="SourceAlpha" type="matrix" values="0 0 0 0 0 0 0 0 0 0 0 0 0 0 0 0 0 0 127 0" result="hardAlpha"/>
<feOffset dy="4"/>
<feGaussianBlur stdDeviation="1.5"/>
<feComposite in2="hardAlpha" operator="out"/>
<feColorMatrix type="matrix" values="0 0 0 0 0 0 0 0 0 0 0 0 0 0 0 0 0 0 0.2 0"/>
<feBlend mode="normal" in2="BackgroundImageFix" result="effect1_dropShadow_41_493"/>
<feBlend mode="normal" in="SourceGraphic" in2="effect1_dropShadow_41_493" result="shape"/>
</filter>
<filter id="filter2_d_41_493" x="68.6078" y="65.7217" width="18.7484" height="22.7271" filterUnits="userSpaceOnUse" color-interpolation-filters="sRGB">
<feFlood flood-opacity="0" result="BackgroundImageFix"/>
<feColorMatrix in="SourceAlpha" type="matrix" values="0 0 0 0 0 0 0 0 0 0 0 0 0 0 0 0 0 0 127 0" result="hardAlpha"/>
<feOffset dy="4"/>
<feGaussianBlur stdDeviation="1.5"/>
<feComposite in2="hardAlpha" operator="out"/>
<feColorMatrix type="matrix" values="0 0 0 0 0 0 0 0 0 0 0 0 0 0 0 0 0 0 0.2 0"/>
<feBlend mode="normal" in2="BackgroundImageFix" result="effect1_dropShadow_41_493"/>
<feBlend mode="normal" in="SourceGraphic" in2="effect1_dropShadow_41_493" result="shape"/>
</filter>
<filter id="filter3_d_41_493" x="187.109" y="8.8855" width="19.2974" height="22.6094" filterUnits="userSpaceOnUse" color-interpolation-filters="sRGB">
<feFlood flood-opacity="0" result="BackgroundImageFix"/>
<feColorMatrix in="SourceAlpha" type="matrix" values="0 0 0 0 0 0 0 0 0 0 0 0 0 0 0 0 0 0 127 0" result="hardAlpha"/>
<feOffset dy="4"/>
<feGaussianBlur stdDeviation="1.5"/>
<feComposite in2="hardAlpha" operator="out"/>
<feColorMatrix type="matrix" values="0 0 0 0 0 0 0 0 0 0 0 0 0 0 0 0 0 0 0.2 0"/>
<feBlend mode="normal" in2="BackgroundImageFix" result="effect1_dropShadow_41_493"/>
<feBlend mode="normal" in="SourceGraphic" in2="effect1_dropShadow_41_493" result="shape"/>
</filter>
<filter id="filter4_d_41_493" x="294.148" y="63.6201" width="19.2974" height="22.6094" filterUnits="userSpaceOnUse" color-interpolation-filters="sRGB">
<feFlood flood-opacity="0" result="BackgroundImageFix"/>
<feColorMatrix in="SourceAlpha" type="matrix" values="0 0 0 0 0 0 0 0 0 0 0 0 0 0 0 0 0 0 127 0" result="hardAlpha"/>
<feOffset dy="4"/>
<feGaussianBlur stdDeviation="1.5"/>
<feComposite in2="hardAlpha" operator="out"/>
<feColorMatrix type="matrix" values="0 0 0 0 0 0 0 0 0 0 0 0 0 0 0 0 0 0 0.2 0"/>
<feBlend mode="normal" in2="BackgroundImageFix" result="effect1_dropShadow_41_493"/>
<feBlend mode="normal" in="SourceGraphic" in2="effect1_dropShadow_41_493" result="shape"/>
</filter>
</defs>
</svg>
