<svg width="154" height="116" viewBox="0 0 154 116" fill="none" xmlns="http://www.w3.org/2000/svg">
<path d="M13.0252 53.3672L11.9207 45.3124C11.5969 42.9514 13.3623 40.8187 15.7422 40.6958C18.0433 40.5769 19.9839 42.3904 20.0209 44.6943L20.1514 52.8234C20.1815 54.6979 18.7602 56.2782 16.893 56.4463C14.9882 56.6178 13.285 55.2619 13.0252 53.3672Z" fill="#222222"/>
<path d="M32.0744 104.334L31.5353 104.374C29.3545 104.539 27.4483 102.916 27.2633 100.737C27.0715 98.4788 28.7983 96.5154 31.0623 96.4172L31.6024 96.3937C33.7052 96.3025 35.515 97.8651 35.7313 99.9587C35.9615 102.186 34.3077 104.165 32.0744 104.334Z" fill="#222222"/>
<path d="M27.2182 77.6899C28.4613 75.032 27.5998 63.0112 26.6672 53.9713C26.3474 50.8711 28.8581 48.1538 31.9743 48.1018C42.926 47.9194 57.7729 46.5539 63.9139 49.1804C66.1819 50.1504 66.2509 65.8353 66.0528 76.1088C66.0015 78.7645 63.863 80.8919 61.2069 80.9243C47.0134 81.0975 25.8347 80.6482 27.2182 77.6899Z" fill="#222222"/>
<path d="M10.9553 33.6497L19.1899 33.3638M16.3444 24.5308L6.19461 24.0354C3.21765 23.8901 0.776204 26.3609 1.01632 29.3317C1.80535 39.0938 3.37253 53.6224 5.55832 60.976C7.13688 66.2867 7.90747 75.2253 8.31055 79.7022C8.56955 82.5787 18.3509 115.452 19.7225 105.278C20.7625 97.5623 19.3695 39.4738 18.4187 6.96411C18.3363 4.14927 20.5772 1.83712 23.3932 1.85114C44.8832 1.95812 83.1571 3.02057 97.7999 6.72124C111.596 10.2079 134.044 9.65577 147.387 8.68116C150.301 8.46828 152.835 10.7126 152.879 13.6344C153.133 30.6107 153.13 59.4963 148.559 74.6208C143.973 89.7927 155.306 100.777 145.954 111.092C145.312 111.8 144.436 112.238 143.495 112.407C112.995 117.883 72.9948 112.293 21.004 108.475M15.9119 59.6096L19.935 93.945M108.435 114.247C108.944 109.829 108.383 99.6556 108.438 92.5603C108.466 89.0585 122.848 91.5695 132.903 92.1488C136.807 92.3737 141.789 96.4279 141.882 100.337C142.003 105.431 142.177 110.506 142.391 111.883M128.003 87.8484L112.612 87.0603M112.428 82.8429L131.077 83.3686M136.133 83.5437L139.471 83.4813M111.944 78.1649L140.846 79.1028M111.821 73.8088L141.083 75.0662M111.717 69.7905L141.24 70.8278M74.0407 66.922L104.323 69.2779M74.9419 71.777L103.845 73.8741M74.1477 76.7348L103.49 78.192M72.6513 81.3927L103.153 82.8491M72.2162 86.6701L89.9847 86.1572M74.8765 90.1268L98.9228 91.9677M72.8201 94.5449L99.1647 96.0443M73.0845 98.9618L100.988 100.3M73.1473 103.459L100.472 105.377M71.8916 107.558L91.9601 109.022M28.0404 84.6643L64.3994 87.1356M28.0268 92.4397L64.4255 94.4313M39.8846 98.0074L62.3112 98.9901M39.8685 103.463L62.7141 103.466M72.2949 59.3877C83.3882 59.7725 106.966 60.773 112.531 61.6963M72.7112 54.9295C91.418 52.9968 140.262 61.2711 142.85 58.9347M72.2486 50.5919C92.215 49.1979 140.834 55.9854 143.167 53.9369M26.1081 38.474C46.3351 38.0192 134.546 46.608 145.357 43.7817M27.5837 34.6361C63.2817 35.1692 134.885 40.8602 145.454 39.6851M29.2171 26.5596L29.5118 21.0159C29.6137 19.1009 32.0914 18.4131 33.1658 20.0017L34.2652 21.6275C35.2979 23.1545 37.6711 22.5901 37.9057 20.7617L38.7221 14.4002M49.1165 14.8723L44.3513 15.1069C43.3155 15.1579 42.4906 15.9921 42.4511 17.0284L42.2257 22.9436C42.1832 24.0586 43.0614 24.9928 44.1769 25.0192L48.7044 25.1262M42.3656 20.5941L48.162 20.5897M51.4976 17.0491L52.5829 21.57C52.9361 23.0409 54.7786 23.5357 55.8211 22.4396L56.567 21.6555C57.2813 20.9045 58.5432 21.2376 58.7938 22.2433C59.0983 23.4653 60.7814 23.6003 61.2766 22.4423L63.989 16.1004M73.3645 17.7931C72.8424 15.9142 69.9246 14.9974 68.2477 17.757C66.0119 21.4363 74.1258 21.4299 73.8494 24.7884C73.4125 30.0981 65.8821 26.1268 65.7944 24.6545M79.8387 17.7479L80.2809 25.1712C80.3488 26.3098 81.3536 27.1612 82.4879 27.0411L86.3013 26.6375M95.7512 19.2552L91.8814 19.6648C90.7686 19.7826 89.9689 20.7905 90.1072 21.9009L90.6692 26.4124C90.7996 27.4589 91.7201 28.2244 92.7728 28.1617L99.0555 27.7874M90.6188 24.675L94.7956 23.8124M100.949 20.6506L110.283 20.5037M105.925 20.6267L106.97 29.0207M111.761 21.3015L118.876 20.5367M115.02 21.0398L115.625 28.9144M128.37 19.631L123.349 20.6275C122.309 20.8339 121.611 21.8163 121.758 22.8665L122.515 28.2809C122.672 29.4006 123.725 30.1679 124.839 29.9741L129.956 29.0839M122.14 26.071L127.956 25.2472M133.854 30.4191L132.928 21.8327C132.843 21.0396 133.23 20.2219 134.011 20.0575C136.213 19.5938 138.121 21.1527 137.363 22.947C136.801 24.2793 136.456 26.0161 137.601 26.9003L141.889 30.2132M11.9207 45.3124L13.0252 53.3672C13.285 55.2619 14.9882 56.6178 16.893 56.4463C18.7602 56.2782 20.1815 54.6979 20.1514 52.8234L20.0209 44.6943C19.9839 42.3904 18.0433 40.5769 15.7422 40.6958C13.3623 40.8187 11.5969 42.9514 11.9207 45.3124ZM31.5353 104.374L32.0744 104.334C34.3077 104.165 35.9615 102.186 35.7313 99.9587C35.515 97.8651 33.7052 96.3025 31.6024 96.3937L31.0623 96.4172C28.7983 96.5154 27.0715 98.4788 27.2633 100.737C27.4483 102.916 29.3545 104.539 31.5353 104.374ZM26.6672 53.9713C27.5998 63.0112 28.4613 75.032 27.2182 77.6899C25.8347 80.6482 47.0134 81.0975 61.2069 80.9243C63.863 80.8919 66.0015 78.7645 66.0528 76.1088C66.2509 65.8353 66.1819 50.1504 63.9139 49.1804C57.7729 46.5539 42.926 47.9194 31.9743 48.1018C28.8581 48.1538 26.3474 50.8711 26.6672 53.9713Z" stroke="#222222" stroke-width="2" stroke-linecap="round"/>
</svg>
