<svg width="20" height="20" viewBox="0 0 20 20" fill="none" xmlns="http://www.w3.org/2000/svg">
<path d="M16.6922 7.94229L10.4422 14.1923C10.3841 14.2504 10.3152 14.2965 10.2393 14.328C10.1634 14.3594 10.0821 14.3756 9.99998 14.3756C9.91785 14.3756 9.83652 14.3594 9.76064 14.328C9.68477 14.2965 9.61584 14.2504 9.55779 14.1923L3.30779 7.94229C3.19052 7.82502 3.12463 7.66596 3.12463 7.5001C3.12463 7.33425 3.19052 7.17519 3.30779 7.05792C3.42507 6.94064 3.58413 6.87476 3.74998 6.87476C3.91583 6.87476 4.07489 6.94064 4.19217 7.05792L9.99998 12.8665L15.8078 7.05792C15.8659 6.99985 15.9348 6.95378 16.0107 6.92236C16.0865 6.89093 16.1679 6.87476 16.25 6.87476C16.3321 6.87476 16.4134 6.89093 16.4893 6.92236C16.5652 6.95378 16.6341 6.99985 16.6922 7.05792C16.7502 7.11598 16.7963 7.18492 16.8277 7.26079C16.8592 7.33666 16.8753 7.41798 16.8753 7.5001C16.8753 7.58223 16.8592 7.66354 16.8277 7.73941C16.7963 7.81528 16.7502 7.88422 16.6922 7.94229Z" fill="#737373"/>
</svg>
