<svg width="28" height="28" viewBox="0 0 28 28" fill="none" xmlns="http://www.w3.org/2000/svg">
<circle cx="14" cy="14" r="14" fill="white"/>
<g clip-path="url(#clip0_9816_11)">
<path d="M20.4001 14.5246H18.3001C18.0216 14.5246 17.7546 14.6352 17.5576 14.8321C17.3607 15.029 17.2501 15.2961 17.2501 15.5746V18.1996C17.2501 18.4781 17.3607 18.7451 17.5576 18.942C17.7546 19.139 18.0216 19.2496 18.3001 19.2496H19.3501C19.6286 19.2496 19.8956 19.139 20.0926 18.942C20.2895 18.7451 20.4001 18.4781 20.4001 18.1996V14.5246ZM20.4001 14.5246C20.4001 13.6928 20.2355 12.8693 19.9156 12.1015C19.5957 11.3337 19.1269 10.6368 18.5364 10.0511C17.9458 9.46545 17.2451 9.00249 16.4746 8.68899C15.7042 8.37549 14.8793 8.21765 14.0476 8.22458C13.2164 8.21852 12.3922 8.377 11.6226 8.69089C10.8529 9.00478 10.153 9.46788 9.5631 10.0535C8.97322 10.6391 8.50505 11.3357 8.18558 12.103C7.8661 12.8704 7.70164 13.6934 7.70166 14.5246V18.1996C7.70166 18.4781 7.81228 18.7451 8.0092 18.942C8.20611 19.139 8.47318 19.2496 8.75166 19.2496H9.80166C10.0801 19.2496 10.3472 19.139 10.5441 18.942C10.741 18.7451 10.8517 18.4781 10.8517 18.1996V15.5746C10.8517 15.2961 10.741 15.029 10.5441 14.8321C10.3472 14.6352 10.0801 14.5246 9.80166 14.5246H7.70166" stroke="#060809" stroke-width="1.5" stroke-linecap="round" stroke-linejoin="round"/>
</g>
<defs>
<clipPath id="clip0_9816_11">
<rect width="16.8" height="16.8" fill="white" transform="translate(5.60156 5.59961)"/>
</clipPath>
</defs>
</svg>
