<svg width="19" height="23" viewBox="0 0 19 23" fill="none" xmlns="http://www.w3.org/2000/svg">
<path d="M9.62406 7.122C8.74806 7.122 7.39206 6.126 5.96406 6.162C4.08006 6.186 2.35206 7.254 1.38006 8.946C-0.575938 12.342 0.876061 17.358 2.78406 20.118C3.72006 21.462 4.82406 22.974 6.28806 22.926C7.69206 22.866 8.22006 22.014 9.92406 22.014C11.6161 22.014 12.0961 22.926 13.5841 22.89C15.0961 22.866 16.0561 21.522 16.9801 20.166C18.0481 18.606 18.4921 17.094 18.5161 17.01C18.4801 16.998 15.5761 15.882 15.5401 12.522C15.5161 9.714 17.8321 8.37 17.9401 8.31C16.6201 6.378 14.5921 6.162 13.8841 6.114C12.0361 5.97 10.4881 7.122 9.62406 7.122ZM12.7441 4.29C13.5241 3.354 14.0401 2.046 13.8961 0.75C12.7801 0.798 11.4361 1.494 10.6321 2.43C9.91206 3.258 9.28806 4.59 9.45606 5.862C10.6921 5.958 11.9641 5.226 12.7441 4.29Z" fill="white"/>
</svg>
