<svg width="20" height="20" viewBox="0 0 20 20" fill="none" xmlns="http://www.w3.org/2000/svg">
<path d="M4.52677 12.514C4.52493 13.035 4.31707 13.5342 3.94855 13.9025C3.58004 14.2708 3.08079 14.4784 2.55977 14.48C2.03858 14.4784 1.53918 14.2707 1.17064 13.9021C0.802101 13.5336 0.594356 13.0342 0.592773 12.513C0.592773 11.43 1.47677 10.545 2.55977 10.545H4.52777V12.513L4.52677 12.514ZM5.51877 12.514C5.51877 11.431 6.40277 10.546 7.48577 10.546C8.56877 10.546 9.45377 11.431 9.45377 12.514V17.441C9.45219 17.9624 9.24431 18.4619 8.87555 18.8305C8.50679 19.1991 8.00714 19.4067 7.48577 19.408C6.96458 19.4064 6.46518 19.1987 6.09664 18.8301C5.7281 18.4616 5.52036 17.9622 5.51877 17.441V12.514ZM7.48577 4.52702C6.96475 4.52517 6.46561 4.31731 6.09729 3.9488C5.72896 3.58028 5.52135 3.08104 5.51977 2.56002C5.51977 1.47702 6.40377 0.593018 7.48677 0.593018C8.56977 0.593018 9.45477 1.47702 9.45477 2.56002V4.52802H7.48577V4.52702ZM7.48577 5.51902C8.56877 5.51902 9.45377 6.40302 9.45377 7.48602C9.45245 8.00756 9.24469 8.50736 8.8759 8.87615C8.50712 9.24493 8.00731 9.4527 7.48577 9.45402H2.55977C2.03841 9.45243 1.53886 9.24455 1.17029 8.87579C0.801721 8.50704 0.594092 8.00739 0.592773 7.48602C0.592773 6.40302 1.47677 5.51902 2.55977 5.51902H7.48677H7.48577ZM15.4728 7.48602C15.4728 6.40302 16.3578 5.51902 17.4408 5.51902C18.5238 5.51902 19.4078 6.40302 19.4078 7.48602C19.4065 8.00739 19.1988 8.50704 18.8303 8.87579C18.4617 9.24455 17.9621 9.45243 17.4408 9.45402H15.4728V7.48602ZM14.4808 7.48602C14.4795 8.00739 14.2718 8.50704 13.9033 8.87579C13.5347 9.24455 13.0351 9.45243 12.5138 9.45402C11.9922 9.4527 11.4924 9.24493 11.1236 8.87615C10.7549 8.50736 10.5471 8.00756 10.5458 7.48602V2.56002C10.5458 1.47702 11.4308 0.593018 12.5138 0.593018C13.5968 0.593018 14.4808 1.47702 14.4808 2.56002V7.48702V7.48602ZM12.5138 15.473C13.5968 15.473 14.4808 16.358 14.4808 17.441C14.4792 17.9622 14.2714 18.4616 13.9029 18.8301C13.5344 19.1987 13.035 19.4064 12.5138 19.408C11.9924 19.4067 11.4928 19.1991 11.124 18.8305C10.7552 18.4619 10.5474 17.9624 10.5458 17.441V15.473H12.5138ZM12.5138 14.481C11.9924 14.4797 11.4928 14.2721 11.124 13.9035C10.7552 13.5349 10.5474 13.0354 10.5458 12.514C10.5458 11.431 11.4308 10.546 12.5138 10.546H17.4408C18.5238 10.546 19.4078 11.431 19.4078 12.514C19.4062 13.0352 19.1984 13.5346 18.8299 13.9031C18.4614 14.2717 17.962 14.4794 17.4408 14.481H12.5138Z" fill="white"/>
</svg>
