<svg width="24" height="24" viewBox="0 0 24 24" fill="none" xmlns="http://www.w3.org/2000/svg">
<path d="M11.9995 8.2501C11.9995 6.1876 13.7339 4.47197 15.7964 4.5001C16.5187 4.50844 17.2232 4.72521 17.8253 5.12436C18.4273 5.5235 18.9013 6.08804 19.1901 6.7501H22.4995L19.4714 9.77822C19.276 12.82 17.9295 15.6732 15.7056 17.7577C13.4818 19.8422 10.5476 21.0016 7.49953 21.0001C4.49953 21.0001 3.74953 19.8751 3.74953 19.8751C3.74953 19.8751 6.74953 18.7501 8.24953 16.5001C8.24953 16.5001 2.24953 13.5001 3.74953 5.2501C3.74953 5.2501 7.49953 9.0001 11.9995 9.7501V8.2501Z" fill="#1A1C1F"/>
</svg>
